<?xml version="1.0" encoding="UTF-8"?>
<svg id="Layer_1" xmlns="http://www.w3.org/2000/svg" version="1.1" viewBox="0 0 1000 1000">
  <!-- Generator: Adobe Illustrator 29.0.1, SVG Export Plug-In . SVG Version: 2.1.0 Build 192)  -->
  <defs>
    <style>
      .st0 {
        fill: #cdcbca;
      }

      .st1 {
        fill: #beb0a1;
      }

      .st2 {
        fill: #c8c8c8;
      }

      .st3 {
        fill: #403f68;
      }
    </style>
  </defs>
  <g id="Layer_2">
    <g id="Layer_1-2">
      <path class="st3" d="M764.8,665.9c-1.5-2.4-3.9-4.1-6.6-4.7-3,0-4.7.8-4.7,2.4s2.1,2.8,6.3,2.7c1.6,0,3.1,0,4.7-.4M774.4,673.3c.4,6.9-1.7,13.6-5.9,19-6.9,6.9-14.9,12.6-23.6,17-5.4,3.6-11.2,6.5-17.3,8.5-1.8,0-38.7,10-40.3,8.4,1.8-1.2,3.7-2.2,5.7-2.9,15.8-7.2,51.3-20.3,71.8-36.6,4-3,6-5.3,6-6.6-.6-1.2-1.5-2.2-2.7-2.9-2.5-1-5.2-1.5-7.8-1.4-8.1,0-12.2-2.7-12.2-8.3,0-4.2,1.5-8.3,4.3-11.4,6.6-7.6,13.2-5.3,18.2,3.6,2.4,4.1,3.7,8.7,3.8,13.4"/>
      <path class="st3" d="M715.3,661c-.7-1.9-1.6-3.7-2.6-5.4.1-2.9.5-5.7,1.1-8.5,0-.8.5-1.3.7-1.4s1.9,2.7,8.5,9c1,1,2.7,2.8,1.2,2.6-1.3,0-2.6-.4-3.9-.8,4.7,10.8,8.3,16.8,5.6,27.1-.5,2.4-1.6,4.7-3.2,6.7-7.3,7.5-15.8,13.9-25.2,18.7-5.6,3.8-11.7,6.7-18.1,8.8-.3,0-5.4,1.2-15,3.5-8,2.2-16.2,3.9-24.5,5h-.4c1.8-1.2,3.6-2.2,5.6-2.9,14-6.5,32.7-13.2,49-22.1,8-4.1,15.7-8.7,22.9-14,4-3.1,6-5.4,6-6.7s-5.6-11.2-7.8-19.1"/>
      <path class="st3" d="M678.6,604.9c.1-2.9-.4-5.7-1.5-8.4.6-2.9,1.7-5.8,3.1-8.4.3-.6.4-.8.6-.8s.5.3.7.8,1.8,4.7,3.9,9.8c3.9,10,7,18.3-.4,9.7-.3-.4-.5,0-.5.7,0,0,4.7,62.7,4.7,67.7.1,7.3-1.1,14.6-3.7,21.4-1.8,4.7-2.7,4.7-2-1,1-9.3.3-18.1-2.1-50.9-1.8-24.1-2.7-37.7-2.7-40.7M657.9,660.9c-2.1-6.7-3.2-2.5-2.2-9.3.3-2.1.6-3.7.7-4.7s.5-1.3.7-1.4c.3.2.6.4.8.7,6.9,8.6,14.6,12.8,5,10,4.7,11,8.3,16.8,5.6,27.1-.6,2.4-1.7,4.7-3.2,6.7-7.3,7.5-15.8,13.8-25.2,18.7-5.6,3.8-11.7,6.7-18.1,8.8-.4,0-5.4,1.2-15.1,3.5-8,2.2-16.2,3.9-24.5,5h-.4c0-.6,7.6-3.9,29.5-13.2,30-12.6,54.1-28,54.1-32.7s-5.6-11.3-7.9-19.2"/>
      <path class="st3" d="M635.7,679.6c-2.5-4.4-5.8-8.4-9.6-11.7-2.9,3.1-10,14.6-10,17.8s1.5,3,4.7,3c6.2,0,15.3-7.4,14.9-9.3M642.3,637c-.4,4.1-1.8,8-4.1,11.3-1.8,3-4.3,7-7.8,12,7.1,8.4,8.1,12.4,8.1,19.2-.1,3.5-1.1,6.9-2.8,9.8-4,5.2-9.7,8.7-16.1,9.9-4.1,0-6-3.1-6-9.3,0-9.3,3.5-16.2,9-25.2-3.6-3.7-6.9-7.8-9.7-12.2l-2.7-2.7c-.7-.7-1.1-1.6-1.2-2.6,0-2.8.6-5.6,1.7-8.3,4.4,2.4,8.6,5.2,12.4,8.4h0s-.5.4-1.8.4c-1.1-.1-2.2,0-3.3.3,0,0,.3.7,1,1.4,2.3,3.1,5.1,5.8,8.3,7.9,4.8-6.6,9.1-13.5,13-20.7.7-2,1.3-3,1.5-3s.5,1,.5,3.3M580.1,611.6c0-2.8-.4-5.6-1.5-8.2.5-3,1.5-5.9,2.9-8.6.3-.6.4-.8.6-.8s.5.3.7.8c3.2,7.2,5.8,14.6,8,22.2,0,1.6-1.5.7-4.7-2.8-.8-1.2-.5.7,1.8,32.7,1.5,21.1,2.3,33,2.3,35.6.2,7.3-1,14.5-3.5,21.4-.5,1.3-1.9,4.7-2.1,3s.7-4.3.7-13.7-5.1-74.7-5.1-81.7M533.8,671.5l-18.7-4.7c2.3-1.1,4.7-1.9,7.2-2.5,5.1-1.2,10-2.8,14.9-4.7,1.9-.7,2-2.4,2.1-3.7.8-3-2.4-38.7-2.4-43.2.2-2.8-.3-5.6-1.5-8.2.6-3,1.6-6,3-8.7.2-.6.4-.8.7-.8s.5.3.7.8,1.9,4.7,4,9.8,3.5,9.1,3.9,10.3c.2.7.3,1.5.3,2.2,0,1.5-1.4.6-4.7-2.8-.3-.4-.6-.2-.6.6s.6,5,1.5,18.7,1,18.4-.3,22.8c-1.7,5.7-5.3,10.7-10.3,14"/>
      <path class="st3" d="M597.8,680c-4,7.4-3.9,8.4-5.1,8.4-11.6-.9-23.4,0-34.7,2.6-31.8,9.7-58.8,14.5-80.9,14.5-14.7.6-29.4-1.5-43.3-6.3v-10.7c9.3,4.7,24.6,6.7,46.3,6.6,25.4-.2,50.6-4.3,74.7-12.1-3.6-.4-32.1-8.2-38.8-8.2s-4.7,0-4.7-.7c0-.3.2-.7.3-1l3.2-6.3h17.9c48.2,13.3,65,10.5,65,12.5v.7h0Z"/>
      <path class="st3" d="M425.8,682.7c2.5,2.5,5.5,4.6,8.7,6.2v10.4c-7.3-2.1-13.3-7.2-16.6-14-5.8-12.5-1.7-60.1-9.3-77.7.4-2.8,1.2-5.6,2.4-8.1.3-.8.6-1.3.8-1.3s.5.4.8,1c9.3,17.8,2.3,72.6,13.3,83.4M398.2,661.3c-.7-1.9-1.5-3.7-2.6-5.4.1-2.9.5-5.7,1.1-8.5.2-.8.5-1.3.7-1.4.3.2.6.4.8.7,6.8,8.4,14.6,12.9,5,10,3.5,6.4,5.8,13.5,6.6,20.8,0,4.6-1.5,9.2-4.2,13-7.3,7.5-15.8,13.8-25.2,18.7-5.5,3.7-11.5,6.7-17.9,8.8-1.9,0-33,8.5-39.6,8.5h-.4c9.5-5,19.2-9.4,29.2-13.2,31.5-13.3,54.1-28.4,54.1-32.7-.9-2.5-1.9-4.9-3.1-7.3-1.8-3.9-3.4-7.8-4.7-11.9"/>
      <path class="st3" d="M319.3,701.6v-10.5c8.5,0,23.3-6.3,34-10.5l-19.6-6c-.8,0-1.6.2-2.1.8-.6.6-1.6.9-2.4.7-16.1-1.1-15.8-.4-14.3-3.5,3-5,3.3-7.4,5.3-7.9,4.8-.6,9.5-.9,14.3-.9l12,3.9c10.7,4,21.8,6.8,33.1,8.2,10.9,2,10.9,1.4,11.7,1.7s.3.6,0,1.3l-3.6,6.7c-1.7,3.6-10-4.3-33.6,4.1-6.1,2.7-12.2,5.2-18.3,7.8-5.1,2.4-10.6,3.8-16.2,4.2"/>
      <path class="st3" d="M319.8,701.6c-6.4.3-11.9-4.6-12.4-11.1-1.4,2.8-3.4,5.2-5.9,7.1-3.7,3.5-8.5,5.5-13.5,5.5v-10.4c5.3.3,10.5-1.4,14.7-4.7.7-.4,8.2-9.1,8.8-9.3s.7.4.7,1c0,.4,0,.8,0,1.2-1.8,6.5.6,10.2,7.5,10.1v10.4h0Z"/>
      <path class="st3" d="M288.7,703.2c-2.6,0-5.1-.1-7.7-.7-3.5-1-6.5-3.4-8.4-6.6-1.4-2.3-2.8-4.7-4.2-7s-2.5-2.9-3.8-3c-3.9,0-8,3.5-12.2,10-1.6,3-3,6.1-4.2,9.3-1.3,3.8-3.1,7.4-5.1,10.8-1.4,2.8-4.1,4.8-7.3,5.1-3.9,0-7.1-3-9.7-9-2.3-5.2-3.5-10.8-3.5-16.5,0-10.9,2.3-18.7,3.3-18.7s-.7,6.1-.7,14c0,14.6,3.4,21.9,10.1,21.9,2.7,0,5.2-2.1,7.5-6.3,2.3-5.1,4.7-10.3,7-15.4s9.6-15.3,15.9-15.5c2.3.3,4.2,1.7,5.3,3.7,5.6,9.1,7.6,13.4,17.6,13.4v10.4h0ZM309.4,718.8v-.6c3.1-6,3.3-7.2,4-7.3,3,1.6,5.9,3.5,8.4,5.8-.6,2.7-1.8,5.1-3.5,7.3-.6,1.4-.5,0-8.9-5.1M282.4,716.6c2.9-5.8,2.8-6,3.3-6.1,3,1.6,5.9,3.6,8.4,5.9-.6,2.7-1.8,5.2-3.5,7.4-.3.5-.5.6-.9.4-2.3-1.7-4.7-3.5-7.7-5.4-.8,1.9-1.8,3.7-2.9,5.5,0,.6-.5.7-.8.4-2.6-2-5.3-3.8-8.1-5.6v-.6c2.8-5.6,3.3-7.3,4-7.4,1.4.6,2.7,1.4,3.9,2.3,1.5,1,3,2.1,4.4,3.3M255.4,643.2c3-5.8,2.8-6,3.3-6.1,3,1.5,5.9,3.4,8.5,5.6-.6,2.7-1.8,5.2-3.5,7.4-.3.5-.6.6-.9.3-2.3-1.7-4.7-3.5-7.7-5.4-.8,1.9-1.8,3.8-2.9,5.5,0,.5-.5.6-.8.3-2.6-2-5.3-3.7-8-5.6v-.6c2.8-5.5,3.2-7.3,4-7.4,2.9,1.7,5.6,3.7,8.1,5.9M507.9,639.5v-.7c3-5.7,3.3-7.2,4-7.3,3,1.6,5.9,3.5,8.4,5.7-.7,2.6-1.9,5-3.5,7.1-.7,1.4-.6,0-9-5.1M705.5,627.3v-.6c3.1-6,3.4-7.2,4-7.4,3.1,1.6,5.9,3.6,8.5,5.8-.7,2.7-1.9,5.1-3.5,7.3-.6,1.4-.4,0-9-5.2M622,621.5c3-5.9,2.8-6,3.4-6.1,3.1,1.6,5.9,3.6,8.4,5.9-.7,2.7-1.9,5.2-3.5,7.4,0,.5-.5.6-.9.3-2.3-1.6-4.7-3.5-7.7-5.4-.8,1.9-1.8,3.8-2.8,5.6,0,.5-.6.6-.9.3-2.6-1.9-5.3-3.7-8.1-5.6v-.6c2.8-5.4,3.2-7.3,4-7.4,1.4.6,2.7,1.4,3.9,2.3,2.2,1.6,3.6,2.7,4.3,3.3M699.9,605.6c30.9-11.3,37.3-13.7,37.3-13.7v.8c-.3.9-.7,1.7-1.4,2.4-10.7,3.9-23.3,8.7-37.7,14.4.4-1.2.9-2.5,1.6-4M385.3,719.2c29.7-10.8,37.3-13.7,37.3-13.7v.8c-.3.9-.8,1.7-1.4,2.4-10.7,4-23.3,8.7-37.7,14.4.4-1.4,1-2.7,1.6-4M728.1,608.3c11.8-4.3,26.2-8.7,38.9-13.4l.8-.3v.8c-.3.9-.7,1.7-1.4,2.4-10.7,4-25.5,8.8-40,14.4.4-1.2.9-2.5,1.6-4M431.9,633.3c23.5-8.7,86.3-32.1,86.9-32.1s0,.4,0,.7c-.3.9-.7,1.8-1.4,2.5-10.7,3.9-72.7,27-87.1,32.7.5-1.4,1-2.7,1.6-4M277.2,632.6c18.7-6.7,86.4-31.9,86.9-31.9s0,.4,0,.7c-.3.9-.8,1.7-1.4,2.4-10.7,4-72.6,27-87.1,32.7.4-1.4.9-2.7,1.5-4M635.6,608.1c28.5-10.4,37.3-13.6,37.3-13.6v.8c-.3.9-.7,1.7-1.3,2.4-10.7,4-23.3,8.8-37.7,14.4.3-1.4.8-2.7,1.4-4M318.9,606.5l.3-.4h0v.5c-.8,4.4-2.2,6.7-4.1,6.7s-3-1.7-3-4.9c.2-4.5,1.4-8.8,3.6-12.7l1-1.7h0c-1.3,3.8-2.3,7.6-3,11.6,0,2.6.7,3.8,2.1,3.8s1.8-1,2.8-2.9M441.5,666.8l.3-.4h0v.5c-.8,4.7-2.2,6.7-4.1,6.7s-3-1.7-3.1-4.9c.2-4.5,1.4-8.8,3.6-12.7l1-1.7h0c-1.3,3.8-2.3,7.6-2.9,11.6,0,2.6.7,3.7,2.1,3.7s1.8-.9,2.8-2.8M567.7,640.9l.3-.3h0v.5c-.8,4.7-2.2,6.6-4.1,6.6s-3-1.6-3-4.9c.2-4.5,1.4-8.8,3.6-12.7l1-1.7h0c-1.3,3.8-2.3,7.6-3,11.6,0,2.6.7,3.8,2.1,3.8s1.7-1,2.8-2.8M767.6,630.2l.3-.4h0v.5c-.8,4.4-2.2,6.6-4.1,6.6s-3-1.6-3-4.7c.2-4.5,1.4-8.8,3.6-12.7.6-1.1,1-1.7,1-1.7h0c-1.4,3.8-2.4,7.6-3,11.6,0,2.6.7,3.7,2.1,3.7s1.8-.9,2.8-2.8M269.4,600.5c4.7,0,6.9,6.6,7.6,11.1,0,.2,0,.4,0,.6h.2c0-.2,0-.4,0-.7.3-2,1-4.9,2.1-9.1,1.2-2.8,2.4-4.3,3.8-4.3s3.1,2.3,3.1,3.4c0,.5-.1,1-.4,1.5-.3.9-.6,1.4-.9,1.3s-.5-.3-1-1.1-1-1.2-1.6-1.2c-2.9,0-3.4,16-6.1,16,0,0-.3-.3-.3-1-.2-2.1-.8-4.1-1.7-6-1.1-2.9-2-4.4-2.5-4.4l-.6.3s-.3.3-.8.3-3.3-2-3.3-3c.3-.8.6-1.5,1.1-2.1.6-1,1-1.6,1.1-1.6M374.4,610.5c4.7,0,6.9,6.7,7.6,11.1,0,.2,0,.4,0,.6h0c0-.2,0-.4,0-.6.3-2,1-5,2.1-9.3,1.1-2.8,2.4-4.3,3.8-4.3.9.1,1.7.6,2.1,1.4,1,.9,1.2,2.4.6,3.6-1,3.3-1.9-.9-3.6-1-3,0-3.5,16-6,16,0,0-.3-.4-.4-1-.2-2.1-.8-4.1-1.7-6-1.1-2.9-1.9-4.7-2.5-4.7l-.7.3s-.3.3-.8.3-3-1.7-3-2.6c.3-.7.6-1.4,1.1-2.1.6-1.1,1-1.7,1.2-1.7M548.7,706.7c4.7,0,6.9,6.6,7.7,11.1,0,.2,0,.4,0,.6h0v-.6c.3-2,1-5,2.1-9.1,1.1-2.8,2.4-4.3,3.8-4.3s3,2.4,3,3.5c0,.5-.1,1.1-.3,1.5-.6,1.8-1.1,1.5-2,0s-1-1.2-1.6-1.2c-3,0-3.4,16-6.1,16,0,0-.3-.3-.3-1-.2-2.1-.8-4.1-1.7-6-1.1-2.9-2-4.4-2.5-4.4l-.6.3c0,.2-.3.4-.8.3-1.5-.4-2.8-1.5-3.3-3,.6-1.4,1.4-2.7,2.3-3.8M482.7,656.9c-1.4,2.9-3.6,5.4-6.3,7.2-4.8,3.5-10.2,6.2-16,7.7-.5.2-1,.3-1.6.3h0c0-.7,2.1-1,18.7-11.9,1.6-1.1,3-2.5,4.2-4,.6-.8,1.3-1.5,2.1-2.1h0c-.3.9-.6,1.9-1.1,2.7M492.7,639.2c0,.7-.6,2.9-1.4,2.8s-3.4-8.6-6.1,6.9c-.3,1.9-.8,3.8-1.5,5.6-.7,1.3-1.4,1.6-1.4,0-.3-2-.9-4-1.7-5.8-1.1-2.9-2-4.4-2.5-4.7l-.7.3s-.3.3-.9.3-3.3-1.9-3.3-3c.6-1.4,1.5-2.7,2.4-3.9,4.7,0,6.9,6.5,7.6,11,0,.2,0,.4,0,.7h0c.4-.3,0-.5,2.3-9.7,1.5-3.5,3.7-5.9,6.1-2.8.5.6.8,1.3.8,2.1M310,647.1c0,2.4-1.2,6.3-3.7,6.3s-3.2-1.3-4-3.8c-.8,2.9-2.4,4.4-4.7,4.4-.9,0-1.8-.5-2.3-1.3-.8-1.1-1.1-2.5-1-3.9,0-4,.3-4-.6-4.3s-.6-.5-.7-1c0-.9.4-1.7,1-2.4.7-.7,1-1.1,1.3-1.1s.7.8.7,2.4v3.7c0,1.7.8,3.9,2.2,3.9.9,0,1.8-.4,2.4-1.1,2.3-2.1.4-4.9,0-8.1,0,0,.2-.7.5-1.4s.6-.9.6-1c.8,0,1.8,6,1.8,7.1,0,2.7,1,4,3,4,.8,0,1.5-.5,1.7-1.3-1.4-2.1-2.4-4.5-2.7-7,0-1.2.6-2.4,1.6-3.2.3,0,.4,1.9.8,3,0,0,.6,1.2,1.4,3.2.5.9.8,1.8.9,2.8M442.1,617.7c-.3.7-.5,1.1-.7,1.1s-.4-.5,0-1.4c.8-6.3-2.1-12.6-7.4-16.1-.2-.3-.2-.7,0-1.1l1.4-2.5h.6c4.6,3.4,7.3,8.8,7.1,14.6,0,1.9-.3,3.7-1,5.5M472.7,604c-.1,1.9-.8,3.8-2,5.4-1.3,2.1-3.1,4-5.3,5.4-.7.6-1.2.9-1.4.9h0c.3-.8,6.3-6.5,6.3-9s-.5-1.8-1.7-1.8-2,1-2.3,1h-.3s0-4.7,4-4.7,2.6,1.2,2.6,3.3M355.9,634.9c-.2,2.3-1.1,4.4-2.5,6.2-1.6,2.6-3.7,4.8-6.2,6.5-.5.5-1.1.9-1.8,1.1h0c.4-1,7.7-7.9,7.7-10.9s-.7-2.2-2.1-2.2c-.7,0-1.5.3-2.1.7-.5.4-.7.5-.8.5h-.3s0-5.8,4.9-5.9c2.1,0,3.1,1.4,3.1,4M522.1,714.6c-.8,1.9-2.1,3.5-3.7,4.7-2,1.7-4.3,2.9-6.8,3.6-.5.2-1.1.4-1.7.4h0c.5-.5,8.3-4.3,9.3-6.8.4-.9,0-1.9-.8-2.3,0,0-.1,0-.2,0-.9-.3-1.8-.3-2.7,0h0s0-.3.5-.9c.8-2,3-3.1,5.1-2.6,1.6.7,2.1,2,1.4,4M242.4,606.4c-.6-1.3-.5-2.9.4-4.1.6-.6,1.4-.9,2.2-.9,4.5,1,8.3,4,10.4,8.1v.7c0,1.2-.4,2.4-1,3.5-.6,1.3-1.2,1.9-1.8,1.9-1.7,0-3.4-.1-5-.4-3.6,4.7-8.3,8.4-13.7,10.8-3.2,1.4-6.4,2.6-9.7,3.6h0c.3-1.6,15.7-8.9,21.9-14.4-3.2-.7-4.7-2-4.7-4,.1-1.6.6-3.2,1.3-4.7M247.7,611.2c.4-1.5,0-4-1.5-4.1-.7.1-1.2.5-1.7,1-.7.7-1,1.1-1,1.4s1.4,1.4,4.2,1.7M253.8,611.2c-.9-1.7-2.3-3.1-4.1-3.8,0,1.4-.2,2.8-.6,4.2,2.9.5,5.1.6,4.7.6s0-.5,0-.9M614.5,601.9c-2.8-1.4-4.3-3-4.3-4.7,0-2.1,1.1-4.1,2.8-5.4,1.9-1.6,3.3-2.2,4.7-1.8s1.5,1.5,1.5,3.3c0,1.9-.4,3.7-1,5.5,1,.5,1.9,1.2,2.7,2.1-.3,1.5-1,2.8-2,4-.7-.9-1.6-1.6-2.6-2.1-1.7,2.4-3.8,4.4-6.2,6-4.8,3.5-10.2,6.1-16,7.7-.5.2-1,.4-1.5.4h0c.5-1.4,16.4-8.7,22.2-15M616.7,597.9c.5-1.5.4-4.2-1.2-4.2s-2.3.7-2.3,1.4,1.2,1.7,3.5,2.8"/>
      <path class="st3" d="M515.2,309.7h0v.2h-.3l.3-.2ZM497.5,257.9v.7h0v-.7ZM479.4,309.9v-.2h0v.2ZM556.1,310.6c-2.9-4.1-6.3-7.9-10.1-11.3,0,0,2.5-.6,3.2.3-3.2-3.7-7.5-6.3-12.3-7.5,1.9-.7,3.9-1.2,5.9-1.5-6.2-2.3-12.7-3.7-19.2-4.2,0,0,1.4-2,2.1-2.3-3-.9-6.2-1.4-9.3-1.4l-.7-.3c5.5-.6,11.1-.4,16.5.6-.5-.8-1.2-1.6-1.9-2.2,4.1.1,8.1,1,11.9,2.7,0,0-.7-1.9-1.4-2.1,0,0,1.7-.4,12.9,4.3.1-.5,0-1.1-.6-1.3,0,0,2.5-1.3,12,1.5,0,0-.6-2.6-8.5-7,1-.8,2.3-1.2,3.6-1.2-5-2.2-10.3-3.8-15.7-4.7,0,0,2.2-1.9,3.4-1.5-4.8-1.6-10-1.7-14.8-.3.9-1.5,2-2.9,3.3-4-6.2.7-12.3,2.5-17.9,5.4,0-1,.2-2.1.5-3-3.3,1.1-6.5,2.4-9.6,4.1,2-1.6,4.3-2.8,6.7-3.6-1-.1-2.1-.1-3.1,0,4.2-2.2,8.6-4.1,13.2-5.5-.9-.4-1.9-.8-2.8-1,3.5-1,7.1-1.7,10.8-2-.4-.5-.9-.9-1.4-1.2l11.9-.7c-.3-.4-.8-.8-1.3-1,3.4-1.6,7-2.6,10.7-2.9,0,0-1-2.4-10-2.6.5-1,1.4-1.8,2.5-2.1-4.9,0-9.9.6-14.7,1.8,0,0,.8-2.3,1.9-2.6-4.3.4-8.4,2-11.9,4.7,0-1.4.4-2.7,1.1-3.9-4.6,2.4-8.6,5.9-11.7,10.1-.5-.8-.8-1.8-1-2.7-2.2,1.8-4,4.1-5.4,6.6-.8,0-1.5.2-2.2.5,2.4-3.4,5.1-6.6,8.3-9.3-.7-.4-1.5-.5-2.3-.5,2.5-2,5.1-3.8,7.9-5.5-.7-.2-1.4-.2-2.1,0,0,0,.7-1.6,10.1-5.7-.6-.1-1.2-.1-1.8,0,0,0,1-2.4,8.2-6.6,0,0-2.3-1.2-10,1.8,0-1.1.5-2.2,1.4-3-4.1,1.7-8,4-11.6,6.7,0,0-.4-1.9.4-2.4-2.8,1.7-3.7,2.1-7.8,8.6-.6-1.3-.8-2.8-.8-4.2-2.5,3.5-4.2,7.7-4.7,12-.5-4.3-2.1-8.5-4.7-12,0,1.4-.2,2.9-.7,4.2-4.2-6.5-4.9-6.9-7.8-8.6.8.5.4,2.4.4,2.4-3.5-2.7-7.4-5-11.6-6.7.8.8,1.2,1.9,1.2,3-7.7-3-9.9-1.8-9.9-1.8,7.1,4.2,8.2,6.6,8.2,6.6-.6-.1-1.2-.1-1.8,0,9.3,4.1,10.1,5.7,10.1,5.7-.7-.2-1.4-.2-2.1,0,2.7,1.7,5.3,3.5,7.8,5.5-.8,0-1.6,0-2.3.5,3.2,2.7,6,5.9,8.3,9.3-.7-.3-1.5-.4-2.3-.5-1.4-2.5-3.3-4.7-5.5-6.5,0,.8-1.1,2.7-1.1,2.7-3-4.3-7-7.8-11.6-10.2.6,1.2,1,2.5,1.1,3.8-3.4-2.7-7.5-4.3-11.9-4.7,1.1,0,1.9,2.6,1.9,2.6-4.8-1.2-9.7-1.8-14.7-1.7,1.1.4,2.1,1.3,2.5,2.4-9,0-10,2.6-10,2.6,3.7.2,7.3,1.1,10.7,2.6-.5.2-.9.6-1.3,1,11.7.6,11.9.7,11.9.7-.6.4-1.2.8-1.7,1.4,3.7.3,7.3,1,10.8,2-1,.2-1.9.6-2.8,1,4.6,1.4,9,3.2,13.2,5.5-1-.1-2.1-.1-3.1,0,2.5.7,4.8,1.9,6.8,3.6-3.1-1.7-6.3-3-9.6-4.1.3,1,.4,2,.5,3-5.6-2.9-11.6-4.7-17.9-5.4,1.3,1.1,2.4,2.5,3.3,4-4.9-1.5-10-1.4-14.8.3,1.1-.3,3.4,1.5,3.4,1.5-5.4.9-10.7,2.5-15.8,4.7,1.3,0,2.6.4,3.7,1.2-7.9,4.4-8.5,7-8.5,7,9.3-2.8,12-1.5,12-1.5-.5.3-.7.8-.5,1.3,11.2-4.7,12.9-4.4,12.9-4.4-.8.3-1.5,2.1-1.5,2.1,3.8-1.6,7.8-2.5,11.9-2.6-.8.6-1.4,1.4-2,2.2,5.5-1,11.1-1.2,16.6-.6l-.7.3c-3.2,0-6.3.5-9.3,1.4.8.7,1.5,1.4,2.1,2.3-6.6.5-13.1,1.9-19.3,4.2,2,.3,4,.8,5.9,1.5-4.8,1.1-9.1,3.7-12.3,7.5.7-.8,3.3-.2,3.3-.2-3.8,3.3-7.2,7.1-10.1,11.3,1.3-.7,2.8-1,4.2-.7-4.7,8-4,11-4,11,6-7.1,9.3-7.8,9.3-7.8-.1.7,0,1.4.4,2,6.2-9.7,8.1-10.4,8.1-10.4v2.3c2.7-2.9,5.7-5.6,8.9-7.9-.3,1.1-.5,2.2-.6,3.3,2.2-2.1,4.8-3.9,7.6-5.3.8.3,1.7.6,2.5,1h0c-5.7,1.7-10.9,4.9-14.9,9.3,1.8-.3,3.6-.3,5.3,0-6.9,5.7-7.6,7.1-8.9,10.7.4-1.1,3.2-1.4,3.2-1.4-2.5,4.5-4.4,9.3-5.6,14.2,1-1.1,2.3-1.8,3.8-2.1-1.7,9.1.6,11,.6,11,3.4-8.7,5.7-10.1,5.7-10.1,0,.6.4,1.2,1,1.5,2.7-11.2,3.8-11.8,3.8-11.8,0,.8,1.2,2,1.2,2,1.4-3.4,3.1-6.7,5.1-9.8,0,.5,0,1.1,0,1.6-2.3,2.6-4.1,5.5-5.4,8.6,1.4-1,3-1.6,4.7-2-3.4,7.4-3.2,8.2-3,11.6,0-1,2-1.8,2-1.8-.2,4.5.3,9,1.4,13.3.3-1.2,1-2.2,2.1-2.9,2.3,8,4.9,9.1,4.9,9.1-.8-8.3.8-10.6.8-10.6.3.5.7,1,1.2,1.4-2.3-10-1.3-11.5-1.3-11.5,0,.7,1.4,1.6,1.4,1.6-.3-3.2-.3-6.5,0-9.7.6.7,1.3,1.2,2.1,1.6.5-4.3,1.7-8.5,3.4-12.4.2.9.6,1.8,1.1,2.7.2-2.1.8-4.2,1.8-6l-2.6,114.3s-10.4,5.2-12.5,12.7h39.7c-1.5-7.4-12.7-12.6-12.7-12.6l-2.3-115.2c1.2,2.1,1.9,4.5,2.2,6.9.5-.8.9-1.7,1.1-2.7,1.7,4,2.8,8.1,3.3,12.4.8-.4,1.5-.9,2.1-1.6.2,3.2.2,6.5,0,9.7,0,0,1.3-.9,1.4-1.6,0,0,1.1,1.5-1.3,11.5.5-.4.9-.8,1.2-1.4,1.2,3.3,1.5,7,.7,10.5,0,0,2.7-1.1,4.9-9,1,.7,1.7,1.7,2.1,2.9,1.1-4.3,1.6-8.8,1.4-13.3,0,0,2.1.8,2,1.8.3-3.4.4-4.2-2.9-11.6,1.7.4,3.3,1.1,4.7,2-1.3-3.2-3.1-6.1-5.4-8.7,0-.5,0-1,0-1.5,1.9,3.2,3.6,6.4,5,9.8,0,0,1.4-1.2,1.2-2,0,0,1.1.6,3.8,11.8.6-.3.9-.9,1-1.5,0,0,2.3,1.5,5.7,10.1,0,0,2.3-1.9.5-10.9,1.5.3,2.8,1,3.8,2.1-1.2-4.9-3.1-9.6-5.6-14,0,0,2.8.3,3.2,1.3-1.4-3.5-2.1-4.9-8.9-10.7,1.8-.3,3.6-.3,5.3,0-4-4.4-9.2-7.6-14.9-9.3h0c.8-.4,1.6-.7,2.5-1,2.8,1.3,5.3,3,7.6,5.1,0-1-.2-2-.5-3,3.2,2.3,6.2,4.8,8.9,7.7,0,0,.5-1.7,0-2.3s2,.7,8.1,10.3c.4-.6.5-1.3.3-1.9,0,0,3.4.7,9.3,7.8,0,0,.6-3-4-10.9-.5,0,2.1-.7,3.7.5"/>
      <path class="st1" d="M544.2,535.9c-12.3,10.8-28.1,16.7-44.4,16.7-12.9,0-25.4-3.7-36.3-10.5l-14.3-6.9c27.6,28,72.7,28.3,100.7.6,2.8-2.8,5.4-5.8,7.7-8.9l-13.3,9.1ZM419.6,399.1c5.8-20.9,24.9-35.4,46.7-35.4l10.5-2.6c-28.2-5.8-55.8,12.4-61.6,40.6-.4,2-.7,4-.9,6.1l5.3-8.5h0ZM513.7,360.1c21.1-3.3,41.9,7.5,51.3,26.7l6.9,7.7c-7.6-27.9-36.3-44.4-64.2-36.9-1.4.4-2.8.8-4.2,1.3l10.2,1.2ZM587.8,424.5c11.4,16.1,11.8,37.6,1.1,54.2l-3.5,10.5c20.2-20.5,20-53.5-.5-73.7-.3-.3-.7-.6-1-1l3.8,10.1h0ZM413.3,497.6c-13.6-13.6-17.8-34.1-10.6-52l1.5-11c-16,23.9-9.5,56.3,14.5,72.2,0,0,0,0,.1,0l-5.5-9.3h0Z"/>
      <path class="st3" d="M504.7,359c.5,0,1,0,1.5,0-.5,0-1,0-1.5,0M528,352.6c-8.7,0-17.3,2.2-24.9,6.3,1.8,0,2.1,0,0,0,27.2-9.8,57.2,4.3,67,31.4.5,1.4.9,2.7,1.3,4.1h0c3.3,4.1,6.3,8.5,8.8,13.1,1.5-28.8-20.6-53.3-49.4-54.9-.9,0-1.8,0-2.7,0M513.7,360.1c-.3,0-.6,0-.9,0,19.9,3.2,38.2,12.7,52.3,27.1v-.3c-9.4-19.2-30.2-30-51.3-26.7"/>
      <path class="st3" d="M584,414.5h0ZM588.9,478.6c10.8-16.6,10.3-38.1-1.1-54.2,5.7,18.1,6,37.4.7,55.6.1-.1.3-.7.4-1.3h0Z"/>
      <path class="st3" d="M584,414.5c21,19.6,22.2,52.5,2.6,73.5-.4.4-.8.8-1.1,1.2v-.3c-2.6,6.4-5.9,12.5-9.8,18.2,26.7-10.5,39.9-40.6,29.4-67.3-4.1-10.5-11.5-19.3-21.1-25.2Z"/>
      <path class="st3" d="M557.5,526.8h0c-23,31.9-67.6,39-99.4,15.9-3.2-2.3-6.1-4.8-8.9-7.6h0c-4.6-2.7-9-5.8-13.1-9.3,18.1,33.8,60.1,46.5,93.9,28.5,12.1-6.5,22-16.4,28.5-28.5l-1,.8M499.8,552.6c16.4,0,32.2-5.9,44.4-16.7-24.7,13.9-54.3,16.2-80.8,6.1,10.9,6.9,23.5,10.5,36.3,10.5M400.9,450.9c-4.5,16.6.2,34.4,12.3,46.7v.4c-8.6-16-12.4-34.2-10.8-52.4-.7,1.7-1.3,3.5-1.7,5.3M414.2,499.8l1.6,2.9-1.6-2.9M397.3,450c1.5-5.4,3.8-10.6,6.9-15.3h0c1.4-7,3.7-13.8,6.7-20.2-24.5,15-32.2,46.9-17.2,71.4,5.9,9.6,14.7,17,25.1,21.2-18.7-12.4-27.4-35.4-21.5-57M466.3,363.6c-21.7,0-40.8,14.5-46.7,35.4l-.8,1c11.7-17.2,28.7-30,48.5-36.6h-.7M491.7,358.8c-25.3-14-57.2-4.8-71.2,20.5-4.8,8.6-7,18.5-6.5,28.3.9-1.5.7-1.3,0,0,2.5-28.7,27.7-50,56.4-47.6,2,.2,4.1.5,6.1.9h-.3c4.9-1,9.9-1.7,15-2.1M414.9,406.5c0-.4.5-.8.7-1.3,0,.4-.5.8-.7,1.3M414.9,406.5h0Z"/>
      <path class="st3" d="M575.2,524.1c-3.5.6-6.8-1.7-7.5-5.2s1.7-6.8,5.2-7.5c3.5-.6,6.8,1.7,7.5,5.2,0,.4.1.8,0,1.2.2,3.2-2.1,6-5.3,6.3M522.8,506.5c10.5-4.9,21.5-34.3,35-30.7-11.2,6.4-23.6,36.2-35,30.7M471.8,506.5c-11.3,5.5-23.8-24.3-35-30.7,13.6-3.5,24.5,25.8,35,30.7M419.5,524.1c-3.2-.2-5.6-3-5.4-6.2,0,0,0,0,0,0,.5-3,3.3-4.9,6.2-4.5,3,.5,4.9,3.3,4.5,6.2-.4,2.6-2.7,4.5-5.4,4.5M566,508.5c-6.5-3.5-12.1-8.4-16.4-14.4,3.8-6.1,8.7-11.4,14.4-15.6,11.4-8.1-10-10.5-16.3-6.5s-4.7,3.1-11.2,8c-9.4-9.5-19.5-18.4-30.2-26.5,33.4-24.9,72.4-41,113.6-47.1-45.6-6.6-91.4,17.8-122.6,40.3-31.2-22.5-77.1-46.7-122.6-40.3,41.1,6.1,80.2,22.2,113.5,47.1-10.6,8.1-20.7,17-30.2,26.4-6.7-4.7-4.7-3.7-11.3-8-6.6-4.2-27.7-1.6-16.3,6.5,5.8,4.2,10.7,9.5,14.4,15.6-4.3,6-9.9,10.9-16.3,14.4-21.7-8-25,18.1-13.2,22.8,7,2.4,14.7.6,19.9-4.7l20.2-20.7c2.9,2.1,5.9,4,9,5.6,17.6,4.9,12.2-7.6,10.8-10.1-2.5-3.6-5.3-7.1-8.2-10.4,9-11.1,19.1-21.2,30.1-30.4,11,9.1,21.1,19.3,30.1,30.4-2.9,3.3-5.7,6.8-8.2,10.4-1.3,2.5-6.7,14.9,10.8,10.1,3.1-1.6,6.2-3.5,9-5.6l20.2,20.7c5.2,5.3,12.9,7.1,19.9,4.7,12.1-4.7,8.8-30.9-12.9-22.8"/>
      <path class="st2" d="M245.5,756.1l-8.3,19.9h-.9l-8.3-19.4c.3,17.5-1.3,18.3,3.3,18.7v.8h-7.6v-.8c2.7-.3,3-.8,3-2.6v-15.5c0-1.9-1-2.1-2.9-2.3v-.9h8.2l6.8,15.3,6.6-15.5h8.1v.8c-2.6,0-2.8.8-2.8,3,0,18.7-1,16.6,2.8,17.5v.8h-10.9v-.8c3.1-.3,2.8-1,2.9-2.5v-16.6h0ZM258.4,772.9v-15.8c.1-.8-.3-1.6-1-1.9-.6-.2-1.3-.4-2-.4v-.9h11.5v.8c-2.8,0-3.1,1-3.1,2.3v15.8c0,1.1.3,1.7,1,2,.7.3,1.5.4,2.2.4v.8h-11.6v-.8c2.6,0,3-.9,3-2.3M275.7,753.9l11.4,14c0-8.8.7-11.7-1-12.6l-.7-.3h-1.4v-.8h7v.8c-2.2.3-2.6.8-2.6,2.6v19.3h-.9l-14.7-17.7c.3,15.3-1.3,15.8,3.1,16.3v.8h-7.4v-.8c2.7-.3,2.8-.9,2.8-2.6v-15.5c-2.3-2.8-2.5-2.1-2.8-2.3v-.8l6.9-.3ZM296.1,772.9v-15.8c0-1.9-1.3-2.1-3-2.3v-.9h11.5v.8c-2.8,0-3.1,1-3.1,2.3v15.8c0,1.1.3,1.7.9,2,.7.3,1.5.4,2.2.4v.8h-11.5v-.8c2.6,0,3-.9,3-2.3M321.8,760.5h-1.1c-.9-3.2-2.9-6-6.3-6-1.4-.2-2.8.6-3.4,1.9h0c0,.4,0,.8,0,1.3,0,2,1.6,2.8,3.4,3.7l4.7,2.4c3.3,1.7,4.5,5.7,2.9,8.9-.5,1-1.3,1.9-2.3,2.5-2.9,1.6-6.3,1.8-9.3.6-1.2-.4-1.9-.6-2.3.6h-1v-8.1h1c.9,3.8,2.8,7,6.7,7,2,.3,3.8-1.1,4.1-3,.2-1.2-.3-2.5-1.2-3.3h0c-2.8-2.1-10.1-3.3-10.1-9.3s5.3-7.8,11-6c1.2.5,1.9.6,2.3-.5h1v7.2h0ZM333.2,772.2v-17.3c-2-.1-4,.7-5.3,2.2h0c-.6,1-1,2.1-1.1,3.3h-1v-6.6h19.7v6.6h-1c0-3.1-2.4-5.6-5.5-5.6-.3,0-.5,0-.8,0,0,16.2-.4,18.7.7,19.7h0c.8.4,1.7.6,2.6.6v.8h-11.4v-.8c1,0,1.9-.2,2.8-.7.4-.7.5-1.5.4-2.3M356.2,756.3v8.3c4.1,0,6-.7,6-4.7s-.7-3.9-2.1-4.4h0c-.8-.3-3.2-.6-3.6,0,0,.3,0,.6,0,.9M370.9,775v.8h-7l-6.8-10.3h-.9c0,8.5-.9,9,2.9,9.3v.8h-11.1v-.8c2.5-.3,2.7-.8,2.8-1.9v-15.5c0-2.4-.6-2.8-2.8-3v-.9h10.5c4.9,0,7.9,1.3,9,3.9.7,1.9.3,4.1-1.1,5.6-1.1.9-2.4,1.5-3.7,1.9l6.6,9.3c.3.5.8.7,1.3.7M394.4,753.6v.8c-.9,0-1.7.5-2.2,1.2l-6.1,10.5c0,4.2-.3,7.6.6,8.4h0c.8.4,1.6.6,2.4.7v.8h-11.5v-.8c3.9-.4,2.9-1,3-7.8l-6-10.9c-.5-1-1.5-1.7-2.6-1.8v-.7h11v.8c-.7,0-2.4,0-2.7.7h0c1.3,3.2,2.8,6.4,4.7,9.3,3.6-6.3,6.4-9.3,4-10.3-.6-.1-1.2-.2-1.9-.3v-.7h7.3ZM417.1,754.2c-4.7,0-5.9,5.9-5.9,10.9s1,10.2,5.8,10.2,5.8-5.6,5.8-10.4c.5-3.6-.6-7.2-3.1-9.8-.8-.6-1.7-.9-2.7-.9M417.1,753.1c15.1,0,15.5,23.3,0,23.3s-11.7-5.2-11.7-11.7,5.2-11.7,11.7-11.7h0"/>
      <path class="st2" d="M449.5,753.9v6.6h-.7c-.2-1.3-.7-2.6-1.4-3.7,0,0-1.1-1.8-6-1.8s-2.1.6-2.1,1.5v7.7c1.4.1,2.8-.4,3.8-1.4h0c.7-1,1.1-2.2,1.2-3.4h.8v11.1h-.8c-.5-3.9-1.9-5-5-5,.3,9.3-1.3,9.7,3.6,10v.8h-11.8v-.8c1.4,0,2.3-.4,2.6-.8.2-.5.3-1,.3-1.5v-15.8c0-1.1-.3-1.7-1-2-.6-.2-1.3-.3-2-.3v-1h18.6ZM478.6,753.9v6.6h-.8c-.7-3-1.6-4-1.5-3.7-1.7-1.4-3.8-2-6-1.7-1.8,0-2.1.5-2.1,1.5v7.7c1.5.1,2.9-.4,3.9-1.5h0c.7-1,1.1-2.2,1.2-3.4h.8v11.1h-.9c-.5-3.9-1.9-5-5-5,.3,9.3-1.3,9.7,3.6,10v.8h-11.8v-.8c1.4,0,2.3-.4,2.5-.8s.3-1.1.4-1.5v-15.8c0-1.9-1-2.2-2.9-2.3v-1h18.6ZM493.8,754.5c-4.9,0-5.9,6-5.9,10.9s1,10.2,5.8,10.2,5.8-5.6,5.8-10.4-1.1-10.7-5.7-10.7M493.8,753.4c6.5,0,11.7,5.3,11.6,11.8,0,6.5-5.3,11.7-11.8,11.6-6.5,0-11.6-5.3-11.6-11.8-.1-3.2,1.2-6.4,3.5-8.6,2.3-2,5.2-3.1,8.3-3.1M516.5,756.4v8.2c4.1,0,6-.7,6-4.7s-.7-3.9-2.1-4.4h0c-.8-.3-3.1-.6-3.6,0,0,.3,0,.6,0,.9M531.1,775v.8h-7l-6.8-10.3h-.9c0,8.4-.9,9,2.9,9.3v.8h-11.1v-.8c2.8-.3,2.7-.9,2.8-1.9,0-9.3,0,13.3,0-15.5s-.6-2.8-2.9-3v-.9h10.5c4.9,0,7.9,1.3,9,3.9.7,1.9.3,4.1-1.1,5.6-1.1.9-2.3,1.5-3.6,1.9l6.6,9.3c.3.4.8.7,1.4.7M551.8,753.6v6.6h-.8c-.8-4.2-2.3-5.5-7.7-5.5s-2.1.6-2.1,1.5v7.7c3.7,0,4.7-1.4,5.3-4.9h.8v11.1h-.8c.1-1.8-.6-3.6-2.1-4.7h0c-1-.4-2-.6-3-.6v7.9c0,1.6,1.1,1.8,2.7,1.8,2.1,0,4.1-.5,5.8-1.7,1.2-1.1,2.2-2.5,2.8-4.1h.9l-1.3,6.8h-19.4v-.8c.9,0,1.8-.2,2.6-.8.3-.5.4-1,.3-1.5v-15.8c0-1.9-1-2.2-2.8-2.3v-.7h18.9ZM559.3,772.6v-15.8c0-1.9-1.1-2.1-3-2.3v-.9h11.5v.8c-2.8,0-3.1,1-3.1,2.3v15.8c0,1.1.3,1.7.9,2,.7.2,1.5.4,2.2.4v.8h-11.5v-.8c2.7,0,3-.9,3-2.3M594.4,766.4v.8c-2.4.3-2.8.7-2.8,3v4.2c-2.8,1.4-5.9,2.1-9.1,2-6.4.1-11.7-5-11.9-11.4,0-3.2,1.2-6.3,3.5-8.6,3.5-3.4,8.7-4.3,13.1-2.1,1.4.7,2.1.8,2.8-.7v-.4h.9v7.7h-.7c-.7-1.6-1.6-3.1-2.8-4.4-1.2-1.3-2.9-2.1-4.7-2.3-5,0-6.1,5.5-6.1,10.5s1.4,10.6,6.7,10.6,3-2.1,3.1-2.4c0-4.7,1-5.5-3.3-5.7v-.8h11.2,0ZM603.4,753.6l11.4,14c0-8.7.7-11.7-1-12.6l-.7-.3h-1.4v-.8h7v.8c-2.2.3-2.6.8-2.6,2.6v19.3h-.9l-14.6-17.7c.3,15.2-1.2,15.8,3.1,16.3v.8h-7.5v-.8c2.6-.3,2.8-.9,2.8-2.6v-15.5c-2.3-2.8-2.5-2.1-2.8-2.3v-.8l6.9-.3ZM634.8,768h6.3l-3.3-8-3.1,8ZM651.2,774.9v.8h-10.6v-.8c.7,0,2.7,0,2.7-1.2-.3-1.6-.8-3.2-1.5-4.7h-7.3c-.6,1.4-1.1,2.8-1.5,4.3,0,1.3,2.3,1.3,2.7,1.3v.8h-6.8v-.8c.7,0,1.4-.4,1.9-1,3.2-6.7,6.1-13.6,8.6-20.7h.9l7.3,17.2c.5,1.5,1.3,2.9,2.3,4.2h0c.2,0,.2.3,1,.3h0l.3.2ZM672.7,753.6v6.6h-.7c-.2-1.3-.7-2.6-1.4-3.7h0c-1.7-1.4-3.8-2-5.9-1.7-1.1,0-1.8,0-2,.7,0,.3,0,.5,0,.8v7.7c1.4.1,2.9-.4,3.9-1.4h0c.7-1,1-2.2,1.1-3.4h.8v11.1h-.9c-.4-3.9-1.9-5-5-5v7.6c0,2.1,1.3,2.2,3.6,2.4v.8h-12v-.8c1.4,0,2.2-.4,2.6-.8s.3-1.1.4-1.5v-15.8c.1-.8-.3-1.6-1-2-.6-.2-1.2-.3-1.9-.3v-1h18.5ZM694.2,753.6v6.6h-.8c-.7-3.1-1.6-4-1.5-3.7-1.7-1.4-3.8-2-6-1.7-2,0-2.1.6-2.1,1.5v7.7c1.5.2,2.9-.4,3.9-1.5h0c.7-1,1.1-2.2,1.2-3.4h.7v11.1h-.8c-.4-3.9-1.9-5-5-5v7.6c0,2.1,1.3,2.2,3.6,2.4v.8h-11.8v-.8c1.4,0,2.3-.4,2.6-.8.2-.5.3-1,.3-1.5v-15.8c0-1.9-1-2.2-2.9-2.3v-1h18.7ZM702.6,768h6.4l-3.3-8-3.1,8ZM719,774.9v.8h-10.6v-.8h1c1,0,1.5-.4,1.5-1.1-.3-1.6-.8-3.2-1.5-4.7h-7.3c-.6,1.4-1.1,2.8-1.5,4.3,0,1.3,2.4,1.3,2.7,1.3v.8h-6.6v-.8c.7,0,1.4-.4,1.9-1,.6-.9.9-1.8,8.6-20.7h1c6.5,15.1,8.3,20.4,9.7,21.4h0c.3.2.6.3,1,.3l.2.2ZM725,772.6v-15.8c0-1.9-1.3-2.1-3-2.3v-.9h11.4v.8c-2.7,0-3.1.9-3.1,2.3v15.8c0,1.1.3,1.7,1,2,.7.2,1.4.4,2.1.4v.8h-11.3v-.8c2.8,0,3-1,3-2.3M744.4,756.1v8.5c4.1,0,6.1-.7,6.1-4.7s-.7-3.9-2.1-4.4h0c-.8-.3-3.2-.6-3.7,0-.2.3-.3.6-.3.9M758.8,775v.8h-6.7l-6.8-10.3h-.9c0,8.4-.9,9,2.9,9.3v.8h-11.1v-.8c2.8-.3,2.6-.9,2.8-1.9,0-9.3,0,13.3,0-15.5s-.6-2.8-2.9-3v-.9h10.5c4.7,0,9.3,1.2,9.3,5.8s-2,4.7-4.9,5.4h-.3l6.7,9.3c.3.5.8.7,1.3.7M776.2,760.1h-.9c-.4-1.4-1.1-2.7-2-3.8l-.3-.4c-1-1.1-2.5-1.8-4-1.8-1.4-.2-2.8.6-3.4,1.9h0c0,.4,0,.8,0,1.3,0,1.9,1.6,2.8,3.4,3.7l4.7,2.4c3.3,1.7,4.5,5.7,2.9,8.9-.5,1-1.3,1.9-2.3,2.5-2.9,1.6-6.3,1.8-9.3.6-1.3-.4-1.9-.6-2.2.6h-1v-8.1h1c.9,3.9,2.7,7,6.7,7,1.5.2,3.1-.6,3.7-2,.8-1.4.4-3.3-.8-4.3h0c-1.5-.9-3-1.7-4.7-2.4-2.4-.9-4.4-2.7-5.4-5,0-.6,0-1.2,0-1.7,0-5.9,5.4-7.8,11-6,1.2.4,1.9.7,2.3-.5h1v7.2h-.4Z"/>
      <path class="st0" d="M467.2,369.9h0Z"/>
      <path class="st0" d="M503.6,363.1h0l1.6.7h0l.8.5h0l.3.2h.3-3l-.4-.9h0l-.3-.7v9.3s.3.8,0,.7h0s.2.7,0,.5h.3v3.2h1.2c0,.4.8,3.2.7,2.8.4,2.1.7,3.2.6,2.8v.3h0v.7h-2.5v3.2h3l.3,2.2.9,2.4c0,.3.4,3.4.3,3l.5,3.1h-4.4v3.2h4.7c0,1.1.4,2.6.3,2.2l.4,5.6v1.5c0,.4,0,1.3,0,.9h-5.2v3.2h5.7l.3,2.4c0,1,.4,8,.4,7.6h0c2,1.5,3.7,3.3,5,5.4h8.3l5.8-3.2h-15.8c0-2.6-.8-12.6-.8-12.4h17.7c.8,3.6,1.4,7.2,1.8,10.8,1-.5,2-1,3-1.5-.8-5.9-1.1-7.7-1-7.4l-.6-1.9h14.2l1,3.2c1-.4,1.9-.8,3-1.2l-.6-2h5.9c3.3-1.2,6.7-2.2,10-3.2h-2.9c0-.3-1-2.1-.8-1.7l-.4-1c-.2-.5-.4-1-.7-1.4-.4-.8-1.1-1.9-.8-1.5-.3-1-.8-1.9-1.4-2.8-.3-.5-.9-1.6-.7-1.3h5.9l5.2,9.1h0c1-.3,2.1-.6,3.2-.7l-.3-.7h0l-1.2-2.2h0l-3-5.3h2.4c.3.4,1.3,1.8,1.1,1.4h0c4.1,6.3,3.9,6.5,3.8,6.3h0c1.1-.3,2.3-.5,3.4-.7l-1.1-1.6h0c0-.4-2.4-4-2.1-3.5l-3.2-4.7-3.1-4-4.7-5.5h0l-1.1-1.1h0l-1.3-1.4c-1.5-1.2-2.8-2.5-4.2-3.9l-2.6-2.1h0l-7.2-5.4-4.7-3.1-2.2-1.2c-.7-.3-4.7-2.4-4.7-2.2l-1.4-.6c-4-1.8-4.1-1.8-3.9-1.7h0l-2.1-.9h0c-3.5-1.3-8-2.6-7.8-2.6l-.8-.3c-6.2-1.3-12.8-2.4-12.3-2.3h0l-6.2-.6v4.4h.3l-.4-.4ZM509.4,383.9v-1.9l-.3-1.5h0c-.3-1.5-.7-3-.5-2.6v-.7h9.9l.9,1.6c.2.3,1.1,1.7.8,1.3h0l.5,1c.8,1.5,1.6,3.2,1.4,2.8,0,0-12.7,0-12.7,0ZM510.7,390.6c0-.7-.7-3.9-.7-3.5h13l1.2,2.6h0l.3,1,.3.7h0l2,5.7h-15.2c-.4-3.6-.8-7.1-.8-6.7v.2ZM532,380.7l1,1.5h0l1.3,1.6h-9.3c-.8-2-1.8-3.9-2.9-5.7h0l-.6-.9h7.1c1.1,1.1,2.2,2.3,3.2,3.5h.2ZM513,410.7l-.3-4.7c0-.9-.5-5.6-.5-5.6h15.8l.6,2.4.4.7c.4,2.8,1.1,3.1,1.6,7h-17.6v.2ZM530.3,397.5l-1-3.3-.3-.7h0l-.6-1.6h0c-.5-1.6-1.1-3.1-1.7-4.7h9.9c4.7,8.1,5.9,10.5,5.7,10.1h0l-12.1.2ZM554.5,397.5h-8.7l-1.7-3.5c-1-2-1.9-3.6-1.7-3.2l-2-3.5h6.9l5.2,7h0c0,.2,1.5,2.3,2,3.1ZM533.8,410.7c-.6-3.4-1.5-6.7-2.5-9.9h12.5c1.3,2.8,2.8,6.9,2.8,6.7h0l1.1,3.4h-13.8ZM560.9,410.2l.3.6h-10.2l-1.2-3.8h0c0-.6-1.2-3.3-2-4.7h0c0-.3-.4-1-.5-1.3h9.3l.3.7h0l.8,1.3h0c.4.7,1.2,2.6,1,2.1,0,.4,1.4,2.8,1.1,2.1.7,1.6,1.4,3.7,1.3,3.3l-.3-.3ZM559.8,387.3v-.8c.3.3,3.4,3.3,2.8,2.7.7.8,1.4,1.6,2.1,2.3l1.2,1.2c1.1,1.3,3.6,4.2,3.1,3.5l.8,1.2h-2.1l-1.2-1.6h0l-2.8-3.9-3.7-4.2h0l-.3-.3ZM556.7,383.8h.3-.5l-.4-.4c.4.2.8.4.4,0v.4ZM557,389.1h0l2.6,3.1h0l1.4,1.6s.4.8.4.6,2.2,2.9,1.9,2.5h0l.4.5h-5.5c-.8-1.5-2.1-3.2-1.9-2.9h0c-.4-.6-2.8-4.2-2.6-3.9-.5-.6-2.8-3.7-2.6-3.4h4l1.7,1.9ZM554.1,381.5l-.6-.6.6.6ZM542.4,377.1h1.5l.9.6h0c4.7,3.9,7.8,6.6,7.3,6.1h-3.4l-.3-.4h0l-.4-.5h0c-1.7-2-3.6-4-5.6-5.8ZM539.2,373.9h-.5l-2-1.4h0l2.6,1.4h-.2ZM537.4,377.1h0s.8.7.6.6h0l5.5,5.1.4.6.5.4h-6.1c-2.2-3.2-5.5-7.2-5.1-6.7h4.2ZM523.8,368.3h.7l3,1.6h0c.9.5,2.1,1.1,1.6.9l2.3,1.4c1.1.7,2.2,1.6,1.8,1.4h-3.2l-.8-.7h0l-1.5-1.4-1.6-1.4c-.7-.6-1.5-1.1-2.2-1.6v-.2ZM518.3,368.3c2.1,1.5,1.4.9,4.7,3.5h0c.9.7,1.7,1.4,2.4,2.2h-5.7l-1.4-2.3h-.3c-1.1-1.5-2.5-3.1-2.2-2.8h2.9l-.5-.6ZM512.3,365h0ZM510.9,368.3c.3,0,.6.6.8.7h0l.3.6.6.3c1,1.3,2.8,3.7,2.6,3.3l.5.6h-8.2s-.2-.7,0-.6h0l-.6-2h0s0-.7,0-.6v-.6h0l-.3-.3h0l-.6-1.3h4.9ZM506.2,364.5h0Z"/>
      <path class="st0" d="M413.7,407.3h0Z"/>
      <path class="st0" d="M432.4,506.2c1.5-1,3-2.1,4.4-3.2h-.8l-.5-1-.5-1.1-.4-.8h0c0-.4-3.5-8.2-3.3-7.6h0c0-.3-.4-1.1-.5-1.4h0v-.6h10.7c.5,1.7,1.2,3.9,1,3.5v.7h0c0,.3.7,1.8.5,1.4h0c.6-.8,1.2-1.7,1.7-2.6-1.4-2.3-2.9-4.5-4.7-6.6h-10.5l-.3-.7v-.8c-.5-1.3-1-2.7-.8-2.2,0-.4-.7-2.8-.6-2.4l-1.4-5.8h.9c-.5-1.3,0-2.4,1.5-3.2h-3l-.7-5.4c0-.6-.7-7.4-.7-6.9h12.2v1.4c.6,6.6.6,7,.8,9,1.1,0,2.2,0,3.3,0,0-.4-.2-2.8-.2-2.5v-.8c0-2.2,0-4.3,0-4v-3.5h15.6l.5,11.2v1.1h-9.8l4.7,3.2h5.6c0,.6.6,4.7.5,4.4h0l.5.4s.8-.9,2.4-2.4c0-.4-.3-2.8,0-2.4h2.8c1-1,2.1-2,3.4-3.2h-6.6c0-.3-.3-1.9-.2-1.4-.3-6.9-.5-10.9-.5-10.8h20.1v1.2c1.7-1.4,3.5-2.9,5.4-4.4h-2.2v-7c-1-.8-2.1-1.4-3.2-2.2v9.3h-20.2v-11.3h17.1c-1.7-1.1-3.4-2.1-5-3.2h-11.8c0-1.3.4-5.7.4-5.3v-1.4l-3.1-1.7c-.4,4-.6,8.6-.6,8.4h-15.8l.4-2.8c.4-4.4.6-6,.6-5.6v-.8h0l.5-3.2h7.3c-3.2-1.6-6.4-3.1-9.6-4.7v1.3h-11.7c0-.4.7-2.4.6-2.1h0c0-.5.7-2.4.6-2.1l.3-.9v-.3c-1-.4-2.1-.8-3.1-1.2,0,.3,0,1.2,0,.7l-.3.6h0l-.5,1.4-.4,1.7h0c0,.4-.6,1.9-.5,1.4v.6h-7.9c0-.4.7-1.5.5-1.1h0c0-.3,1.9-5.6,1.7-5.3s.6-2,.6-1.7.6-1.2.3-.9h0l-3-1.1-.8,2.4-.6,1.5c-.8,2.4-1.4,4.7-1.4,4.7h0l-.4,1.4h-4.1l.4-1.1h0l.5-1.6h0l.5-1.4h0c1.3-3.2,1.4-4.1,1.4-3.8.4-.7.7-1.3.9-2.1h0l.4-.8h0l-3.1-1c-1.7,3.8-1.9,4.7-1.8,4.3-.8,1.7-1.4,3.5-1.9,5.3l-.3.7h0l-.8,2.4h0c0,.6-2.1,8.4-2,7.9-1.3,8.2-1.6,12.5-1.6,12.3s0,6,0,5.7h1.6-1.6c0,3.5.2,7,.7,10.5l.3,2.6h0l.3,1.4v1c.7,3.9,1,4.9.9,4.7l1.4,5.6.6,1.7.3.8h0l.5,1.4h0c0,.4,2.6,7.8,2.1,6.2l1.1,2.3h0l1.8,3.5.2.8c.3.7,2.8,4.7,2.6,4.4h0c6.3,10.4-2.1-3.3,3,4.7-.3-.4.6.9.8,1.3,1.3-.2,2.6-.3,3.9-.2l-.7-.8h2.4l.8,1.2c1.2.3,2.4.6,3.5,1.1l.6.7-1.3-1.9,4.7.4h0ZM440,445.1h16.1c0,.4,0,11.6,0,11.3h-16.3c.2-10.4.3-11.4.2-11.3ZM426,433.6l.8-4.1h11.6c-1,5.7-1.7,12.6-1.6,12.3h-11.8c.2-1.6,1.2-8.7,1.2-8.2h-.1ZM424.6,445.1h12.1c-.2,5.5-.3,11.3-.3,11.3h-12.1c0-.4.4-12,.4-11.3h-.1ZM423.9,479.4l.4,1.7c0,.4,1.6,5.7,1.6,5.3v.7h-7.1l-.9-2.6c-.9-2.8-1.1-3.5-.9-3.1l-.6-1.2v-.8h0c0-.4-1.2-4.9-1.2-4.7h8.2c.1.7.2,1.3.3,2,0,.4.6,2.8.5,2.4l-.3.3ZM422.6,471.8h-8.1l-.8-5.4c-.4-4.7-.6-7-.6-6.6v-.3h8.3c1,9.3,1.3,11.7,1.2,11.4l.2.9h-.2ZM414.1,436.7c.3-1.1,1.6-7.3,1.5-6.9h7.8l-.5,3.4h0v1.7h0c-.9,5.9-1,7.4-1,7.2h-8.5c.4-3.2.7-5.8.7-5.4ZM412.9,448v-2.8h8.4v1.6c0,1.1,0,9.9,0,9.3h-8.5c0-.6,0-9.3,0-8.4v.2ZM407,434.4h0c.7-3.3,1.2-5,1.1-4.7h4.2c-.6,2.2-1,4.4-1.4,6.6,0,.7-.8,5.5-.7,5h0v.7h-4.7c.3-2.1,0-1.6,1.3-7.6h.1ZM405.1,449.5h0c0-.7.4-4.7.4-4.4h4.7c-.7,3.8-.7,11.8-.7,11.4h-4.7v-7h.3ZM405.8,465.4l-.6-5.9h4.4c.3,4.7,1.5,12.6,1.5,12.3h-4.2c0-.4-1.2-6.9-1.1-6.4ZM411.6,487.4c-.6-1.3-1.1-2.6-1.4-4h0c0-.6-1.9-5.8-1.7-5.5,0-.4-.5-2-.4-1.5h0s-.3-1-.4-1.3h4.2c.7,3,1.8,7.2,1.8,7h0l1.7,5.4h-3.7ZM419.6,503.2c-.4-.5-.7-1-1.1-1.5-1.2-2.1-2.2-4-2.3-4.2h0c-.2-.4-1-1.9-.8-1.5h0l-.3-.4v-.7l-2-3.8h3.6c0,.4,1.1,2.4.8,2h0c.2.5.4,1,.7,1.5.5,1,1.2,2.7,1.1,2.3h0c.9,1.9,2,4,1.7,3.5h0c0,.4,1.4,2.4,1.5,2.8h-2.9ZM426,503.2h0l-1.1-2.1h0l-.3-.7h0c-1.1-1.9-3-5.7-2.8-5.5-.2-.7-.5-1.4-.9-2.1-.6-1.1-.7-2-.6-1.5h7.2c0,.6,2,5.4,1.8,5h0c.9,2.3,2.2,5.4,2.1,5.2l.9,2.1h-6.2v-.3Z"/>
      <path class="st0" d="M417,408.3c1.4-2.6,3-5.2,4.7-7.7h2.3c0,.4-1.6,3.1-1.4,2.7-3,5.2-2.1,3.7-3.1,5.6l3.2.8h0l1.5-2.7.4-.7h0c2.2-3.8,2-3.5,3.2-5.6h6c-1.8,3.3-3.3,6.7-4.7,10.1h-2.4c3.4.9,6.6,2,10,3.2h5.3s-.4,1.6-.5,1.7c1,.3,2.1.7,3,1.2l.8-2.9h14.3c-.8,2.4-1.2,4.9-1.2,7.5,0,.5-.4,2-.4,1.4h0c1.1.5,2.1,1,3.1,1.5.3-1.5.6-3.1.7-4.7h0c.5-2.8,0-1.5,1-5.6h17.8l-.8,12.4h-15.2c2,1,3.9,2.1,5.8,3.2h8.3c1.2-1.8,2.6-3.3,4.2-4.7.3-5.6.8-11.1.8-11h6.3v-3.2h-6.1l.8-5.9.4-4.3h5.2v-3.2h-4.7c1.1-6.5,1.6-10.6,1.5-10.2h3.5v-3.2h-2.9v-.8h0l.5-2.9.7-2.6h1.6v-3.2h-1v-.6h0l.6-1.7.3-.7.3-12.4h-4.4l-5.8.8-1.6.3-7.4,1.4-6.2,2c-.4,0-2.8,1.1-2.4.9h0l-2.2.9h0l-3.3,1.3s-.9.7-.7.5c-1,.3-1.9.7-2.8,1.3h0l-5.3,2.7-4.9,3.1c-2,1.6-7.5,5.6-7.3,5.4l-1.4,1.1c-9.3,8.5-10.2,10-10,9.8h0l-1,1.1-1.1,1.3h0l-1.2,1.3c-.4.6-.9,1.2-1.4,1.7h0c-.4.4-.7.9-1,1.4h0c-1.1,1.6-2.7,3.7-2.4,3.4h0c-1.8,3-3.1,4.9-3,4.7h0l-.9,1.3v.2c1.2.2,2.5.4,3.7.7v.2ZM444.8,405.6c-.7,1.7-1.3,3.4-1.7,5.1h-10.3c.5-1.3,1.2-3,1.1-2.6h0l.6-1.3h0l.5-.8,1.1-2.1v-.7l.3-.4h0c.3-.4.6-.9.8-1.4h0s.3-.6.4-.7h9.3l-.9,2.7c-.2.8-.6,1.6-.9,2.3h0ZM455.8,390.2h0c0-.4,2-3.3,1.8-2.9h9.9l-.3.7h0c0,.3-.8,1.6-.7,1.2v.7l-.4,1h0l-1.2,3.2-1,3.2h-12.1c1.7-3.1,4.3-7.7,4-7.1h0ZM464.1,378.6h0v-.3s.7-.6.6-.3l.4-.5h7l-1.4,2.8h0c-1,2.1-1.9,3.9-1.8,3.6h-9.3l4.3-5.6.2.2ZM452.2,389.8v.6l-.4.4c-1.8,3.5-3.5,6.8-3.4,6.7h-8.8l1.5-2.4h0l1.2-1.8h0l4.7-5.9h6.9c-.5.8-1,1.6-1.4,2.4h-.2ZM460.8,409.3c0,.3-.5,1.7-.4,1.3h-13.6l1.6-5.5.7-1.4h0l.3-.7h0l.7-1.5h0c0-.3.2-.5.3-.8h12.5c-1.6,5.7-2.3,8.8-2.3,8.7h.3ZM481.2,410.7h-17.6c.5-2.3.9-4.3.9-4.2l.7-2c.6-2.4,1.1-4,1.1-4h15.9c-.2.8-1.1,9.7-1.1,10.2h.1ZM483.6,390l-.3,2.5h0c0,2-.6,4.1-.6,3.9h0v.9h-15.5l.6-1.5c0-.3.3-.9.3-1.1h0c.8-1.9,1.7-4.7,1.7-4.7h0l.5-1.3h0l.4-1,.2-.3h13.2l-.5,2.8v-.3ZM485.5,379.7c-.3,1.4-.5,2.8-.4,2.4s-.3.8-.3.6v1.4h-12.3l1.9-3.8,1.7-2.9h9.8l-.4,2.3ZM487.1,365.1h.7c1.1-.4,2.2-1,3.2-1.6h0v.2c-.1.3-.2.6-.3.9h0c0,.3-.7,1.3-.4.9h-3.1v-.4ZM481.5,365.1h.4-.4ZM480.6,371.2v-.4l1.3-1.3.3-.5h0l.6-.4h6c0,.2-.4,1.1-.4.9v.8h0l-.6,1.6-.5,1.7h0s0,.7,0,.6h-9.1l.3-.4h0v-.2c1.9-2.6,1.8-2.3,1.6-2.1l.5-.2ZM472.3,370.7l.7-.6.7-.4.5-.6,1.4-.7h3.2l-.8.9-.6.8h0l-.5.6v.4h-.3c0,.4-1.4,2.3-1.6,2.6h-6.4l.2-.3,3.3-2.8v.2ZM462.6,372.7l1.9-1.1h0l1.2-.7h.5l3.5-1.9h.5c-3.2,2.4-3.8,3.1-3.7,3l-2.6,2.7h-3c.5-.5,1.1-1,1.7-1.4v-.6ZM457.3,372.7l-.4.5-1.1.7h-.6l2.4-1.4-.3.2ZM456.1,377.9h0l.8-.6h3.9l-2.8,3.6-.3.6-.5.4-1.4,2.1h-6.2c.4-.5.9-1,1.4-1.4,2.2-2,5.2-4.7,5-4.7h.1ZM444.7,381.8c.7-.5,5.8-4.7,5.4-4.3h1.4c-2.2,2.1-4.3,4.4-6.3,6.7h-3.1c1.6-1.3,3.1-2.7,2.7-2.3h-.1ZM440.2,381.4h0c.9-.8.3-.4,0,0ZM437.4,384.1h-.4c5.8-5,0,.6.4,0ZM438.7,387.4h4c-.3.4-2.4,3.1-2.1,2.8s-1.6,2.2-1.4,1.9c-.2.5-.5,1-.8,1.4l-.4.6h0c-.8,1-1.5,2.1-2.1,3.3v.2h-5.6l2.4-2.9c.5-.7,6.6-7.9,6-7.1ZM432.5,388.1l.7-.4.4-.6h.7l-4,4.7c-.3.4-1.6,2.1-1.3,1.8-.7.9-2.7,3.9-2.4,3.5v.3h-2.1l8.3-9.3h-.2Z"/>
      <path class="st0" d="M450.9,382.6h0ZM438.4,524.1h0s0,0,0,0Z"/>
      <path class="st0" d="M591.8,444.5c-.8-6.4-1.2-8.4-1.1-8.3l-.5-2.4c0-.7-1.1-4.3-1-3.9h0l-.3-1h0l-.4-1.4h0c-1.4-4.7-1.9-5.8-1.7-5.5h0c0-.6-.9-2.6-.8-2.2l-2.1-5.3-3.1,1,.3.8h0c1.8,4.3,1.2,2.9,2.4,5.8h0c.5,1.4,1,2.7,1.4,4.2h-4c0-.4-.5-1.8-.3-1.4h0c-.2-.8-1.8-5.8-1.7-5.4-.3-.9-1-2.8-1.2-3.1h0l-3.1,1.1.3.7h0l.5,1.5c.8,1.7,1.4,3.6,1.8,5.4h0l.4,1.1h-7.9l-.9-3.7-.7-1.3h0v-1.1c-1,.4-2.1.8-3.1,1.2h0c0,.4,1.2,3.5,1,3.1,0,.7.7,2.5.6,2.1h-11.7v-1c-3,1.3-6,2.7-9.1,4.2h6.5c.4,2.5.8,4.7.7,4.7.6,4.7.8,7.3.9,7.6h-16.2c-.3-5.1-.3-5.9-.6-8l-3.1,1.7.4,6.3h-11.3c-1.6,1-3.3,2.1-4.9,3.2h16.4c0,.7,0,11.8,0,11.3h-19.9v-8.9l-3.2,2.2v6.9h-1.4l4.7,3.8v-.6h19.9c-.7,13-.5,7.7-.7,12.3h-5.8l3.5,3.2h2.1l-.3,1.7,2.9,2.9c0-.6.3-2.2.3-1.9l.3-2.8h6.3l4.7-3.2h-10.7c.3-2.4.7-9.3.7-9.3v-3h16.2c0,.4,0,5.6,0,5.3s-.4,3.3-.3,2.9v1.1c0,.4-.2,1.4-.2,1.5,1.1,0,2.1,0,3.2,0v-.9l.7-9.3h12.1c-1.3,11.9-.9,8.9-1,9.8h0c0,.9-.5,3-.4,2.4h-2.3c1.4.8,2,1.9,1.4,3.2h.3l-.9,4.7h0v.7c0,.5-.2,1-.4,1.4,0,.5-.2,1.1-.4,1.6-.3.7-.6,1.5-.8,2.3,0,1.3-.4,2.1-.4,1.8h-10.1c-1.7,2.1-3.3,4.3-4.7,6.6.4.7.8,1.3,1.3,2v-.3h0c.3-1.1,0-.6.6-2.1h0l.8-2.8h10.8l-.8,2.4c0,.4-1,2.7-.9,2.3l-1.4,3.5h0c-.1.4-.3.8-.6,1.2l-1.5,3h0c1.6,1.2,3.1,2.3,4.4,3.2h3.5l-.9,1.2v.4l1.2.6,2.8-.9.9-1.3h2.4l-.4.5v.3c1.3-.2,2.6-.2,3.9,0,.7-.9,3-4.3,2.6-3.8.4-.8.8-1.5,1.3-2.2h0c0-.3,3.9-7.2,3.5-6.5h0l.4-.8h0l.6-1.4h0c2-4.7,2.7-6.7,2.8-7h0l.5-1.5h0v-.3l1.2-3.9h0c1.3-4.4,1.7-6.4,1.7-6.3v-.8c0-.4.7-3.5.6-3.1h0c0-.4.4-2.2.4-2.4h0l.3-1.7c0-.3.6-6.2.5-5.8.5-4.9.5-9.9,0-14.8l-.4-.9ZM538,456.5c0-10.6,0-11.4,0-11.3h16.2v11.3h-16.2ZM585.4,429.7v-1.7c.4,1.7,1.2,4.4,1.2,4.2,1.8,9.3,1.8,9.8,1.7,9.3v.4h-4.7v-.8h0c0-.4-.9-6-.8-5.6,0-.3,0-.6,0-.9h0l-.7-3.2c0-.4-.6-2.2-.4-1.8h3.6ZM580.7,445.2c0,6.4.3,11.6.3,11.3h-8.2c0-8.9,0-9.7,0-9.3v-1.7l7.9-.2ZM579.3,471.9h-8c0-.3,0-.7,0-1h0c0-.5,0-1,0-1.5h0c.7-3.3,1.2-6.6,1.4-9.9h8.4c-.2,4.1-.6,8.2-1.4,12.3h-.5ZM578.1,429.7c0,.8.4,2.1.3,1.7,0,.4.6,2.1.4,1.6,0,.5,0,1,0,1.5l.4,1.6.3,1.6v.8c0,1.2,0,.5.5,3.6h-7.8l-.8-5.7h0l-.5-3.2-.7-3.5h8.1-.2ZM556.4,439c-.2-2.5-.5-4.9-.9-7.3l-.3-1.9h11.7c.9,4,1.5,8,1.9,12h0v.3h-11.8c0-1.1-.1-2.1-.3-3.2h-.2ZM557.4,456.5c0-9.7,0-10.5,0-10.3v-.8h12.1c0,.3.3,11.6.3,11.2h-12.5ZM568.1,486.4v-.6h0c.8-2.3,1.8-6.4,1.7-6.2h0c0-.4.9-4.7.8-4.4h8.1c0,.4-2.3,8.1-2.1,7.8-.6,2.2-.9,3.2-.8,2.8-.2.5-.4,1.1-.7,1.6h-7.3c0-.4,0-.7,0-1.1h.3ZM570.8,497.9h0l-.7,1.4c-.3.4-.5.8-.7,1.3-1.1,2.1-.3.4-1.3,2.3h-6.4l2-4.7c.8-1.6,2.5-6.4,2.3-5.7l.6-1.5v-.5h7.3c0,.4-2.5,5.4-2.3,5.1l-.6,1.4-.4.7h.3ZM578,497.2c-.2.5-.5,1-.8,1.4h0c-.2.4-.4.8-.7,1.2h0c-.6,1.1-1.4,2.1-1.1,1.8s-.6.9-.7,1.2h-2.8l1.1-2h0l.4-.7h0c1.4-2.7,2.3-4.7,2.3-4.4,1.8-4.3,1.9-4.7,1.9-4.7l.3-.7h3.5l-3.2,6.5v.3ZM585.8,477.9h0l-1.2,3.7h0l-.5,1.7c0,.5-1.2,3.3-1,2.8-.7,1.4-.4.9-.4,1.2h-3.7c.5-1.4,1.5-4.7,1.6-5.4h0c0-.3,1-3.5.8-3.2.6-2.4.9-4,.9-3.8h4.2c0,.4-.8,3.4-.7,2.9h0ZM588.5,464.7c-.6,3.5-.7,4.7-.7,4.7h0l-.5,2.4h-4.2c.4-2,.6-4,.7-6h0l.3-1.6v-3.2h0v-1.3h4.7c0,.8-.4,5.6-.4,5.2h.3ZM588.9,456.5h-4.4v-6.5c0-.3-.4-5.2-.4-4.7h4.4c0,.4.4,12.1.4,11.3h0ZM480.9,536.1h0s0,0,0,0Z"/>
      <path class="st0" d="M482.9,432.8h-3.2v2l3,2s0-3.5.2-4h0Z"/>
      <path class="st0" d="M556.2,523.4h0l-2.1-2.4-1.2,1.2c-4.4,3.9-5.4,4.7-5,4.7h0l-1.9,1.4-.3.4h-2c3.9-4,4.7-5.1,4.7-4.7l2.3-2.7s.6-.7.4-.5h2.9l-4.6-4.2-.5.7h-7.2c0-.4,1.5-2.9,1.4-2.5h0l.4-.8h0c.2-.3.4-.7.6-1l.6-1.4-2.3-2.3-.5.9h0l-2.9,5.7c-.3.3-.5.7-.7,1.1l-.4.6h-10.4l.8-2.2h0l.7-1.8c.3-.6.4-1.1.6-1.7-1.2.3-2.4.6-3.7.8-.4,1.2-.4,1.1-1.7,4.7h0v.3h-13.8l1.2-7.6v-1.3c0-.3.3-1.8.4-2.4h5.6c.2-1.1.5-2.1.9-3.2h-6.2c.4-3.2,1.2-12.6,1.1-12.4h13.8c-.8-1.1-1.7-2.1-2.7-3.2h-10.8v-5.1h0l.3-6.1-4.7-4.7h-24.6c-1.7,1.7-3.5,3.4-5.1,5.1l.7,10.5h-10.1c-.9,1-1.8,2.1-2.7,3.2h12.9c.6,6.8,1.2,12.5,1.2,12.3h-5.5c.4,1,.7,2.1,1,3.2h4.7l.4,2.9c0,.8.7,5.6.7,5.3h0l.5,2.9h-13.2l-2.1-4.6c-2.3-.4-3.2-.8-3.6-.9h0l1.5,4.7h0l.5,1.4h-10.2l-.6-.6h0l-.7-1c-.2-.3-3.4-6.4-2.9-5.6h0l-.3-.5-2.3,2.4c0,.3,1.1,2.4,1,2h0l1.4,2.5v.6h-7v-.3l-3.5,3.6h2.3c0,.2.6.7.3.5h0c.2,0,.6.7.4.4h0c2.1,2.4,3.5,3.9,3.5,3.8.8,1.1,1.8,2.1,1.4,1.8l1.1.9.4.4h-2c-.3-.3-2-1.6-2.3-1.7h0l-6.3-5.5-2.2,2.3c3.3,3.4-.4,0,0,0l-2.3,2.4,4.7,3.7c.5.3,1,.6,1.4.9.3.2,1,.7,1.2.9h0l5.4,3.5c3.7,2,2.3,1.4,6.1,3.2h0l1.3.7c1.5.7,3.7,1.6,3.1,1.4h0l5.5,2.1,1.5.7,4.7,1.4,4,1h1.8c6.2,1.1,8.1,1.5,7.9,1.4l4.1.4,11.7.3,4.9-.3c2.4,0,4.2-.4,4.2-.4l1.7-.3c5.7-1.2,7.4-1.4,7.2-1.4h.8l2.5-.4,6.4-2,3.1-1.3c1.4-.6,4.7-1.7,3.9-1.4h0l3.1-1.4,1.4-.7,1.5-.7,1.5-.8,1.9-1,7.8-5.1h0l1.4-.9,5-4.1-2.2-2.3c-3.9,3.3,0,0,0,0h0ZM522.8,527.7c0-.3,1.7-3.5,1.6-3.1h0c.3-.7,2-4.3,1.9-4h9.7c-.4.6-1.4,2.2-1.2,1.8,0,.4-3.6,4.7-3.4,4.7h0l-1.2,1.3h-7.7v-.2h0s.3-.6,0-.5h.4ZM522.8,520.6v.4h0c-1,2.6-2.3,5.1-3.8,7.4h-10.5c1-5,1.3-6.2,1.2-5.8,0-.4.4-1.8.4-2.1h12.8ZM487.1,517.4l-1.7-11.2h23.3c-1,6.1-1.3,9.6-1.3,9.3l-.4,1.7h-20ZM506.3,523.2v.4c-.5,1.6-.9,3.3-1.1,4.9h-16.2l-.3-1.7-.3-1.8-.4-1.4c-.4-2-.6-3.3-.6-3h19.3l-.6,2.5h0ZM484,490.5h26.6c-.4,3.2-.7,6.5-.7,6.4,0,.5,0,1,0,1.4,0,.4-.4,4-.3,3.5v.9h-24.7l-.3-2.3c-.3-4.7-1-10.3-.9-10h.2ZM484,487.2l-.5-9.3c0-2.1-.3-3.5-.3-3.1h27.9l-.5,7.9h0l-.3,4.3-26.4.2ZM484.1,520.6c0,.4.7,2.9.6,2.5v1l.4,1.2h0l.5,2.5h0v.7h-10.3c-.9-1.4-1.7-2.8-2.4-4.3l-1.4-3.1h0v-.4h12.7ZM467.9,520.6h0l1.9,4.1h0l.4,1c.8,1.5,1.7,3.2,1.5,2.8h-7.5l-.6-.7h0c-.4-.4-1.1-1.3-.8-.9l-3.8-5.1h0l-.9-1.3h9.8ZM455.5,533.1l-.7-.3-1.6-1.2h1.1l.7.6h0c6,4.7,0,.5.6.7h0ZM455.3,528.5l-3.3-3.1c-1.7-1.7-3.5-3.6-3-3.1l-1.4-1.7h6.6c0,.2,6.3,8.5,5.3,7.3h0l.4.6h-4.7,0ZM467.9,537.4l-2-1.1-.5-.5-.6-.3-.4-.4c-1.8-1-3.5-2.1-5-3.5h3.6l.4.6c1.1,1.1,2.7,2.6,2.3,2.1h0l.9,1,1.4,1.2,1,.7h-1ZM474.1,537.4l-.5-.5-.7-.3-2.5-2.1h0l-.7-.6h0l-.5-.5h0c-.7-.8-1.8-1.9-1.4-1.5h6.3l1.9,2.9h0c1,1.2,1.8,2.2,1.4,1.8l.6.8h.2-4.1ZM480.5,541.2c-.6-.3-1-.7-1-.7h1.2l.7.7.5.3h0l-1-.5h-.5.1ZM482,537.4c-3-3.3-3.5-4.2-3.3-3.9h-.3l-.8-1.3h9c.6,2.7,1.9,6,1.8,5.7l-6.4-.6ZM491.1,543.8l-1.7-.8h0l-1-.7h-.6l-.5-.4h0v-.3h-.5c-.3-.3-.9-.9-.7-.7h3.9v.3h0v.3c.3.9.7,1.8,1.2,2.6l-.2-.3ZM491.1,535.2h0l-.9-2.8h0l-.3-.7h14.2c-.5,1.4,0,.7-1.1,3.5h0c0,.4-.7,1.8-.8,2.1h-10.5l-.7-2.1h.1ZM500.9,540.5h0l-.7,1.3h0l-.6.3v.6h0s-.7.8-.6.6h0l-.5.6h0l-.6.3h-1.7l-.6-.6h0l-.6-.7s-.3-.7-.3-.6h-.4c0-.4-1-2-.8-1.6h7.2v-.2ZM507.6,541.2h-.5v.3h0l-.5.4h0l-.7.3-.3.3h-.6l-.6.3h0s-.8.3-.6.3h0c.7-1.4,1.4-3.1,1.3-2.8h4l-.8.6-.8.3ZM512.3,541.6c.8-.9,1.5-1.7,1.2-1.2h1.3c-2.5,1.3-2,1-2.5,1.2ZM513.3,535.9c0,.3-.9.8-1.2,1.1v.3h-6.4l.6-1.4h0l.5-1.5h0l.5-1.6v-1h8.9c0,.3-1.2,1.9-.9,1.5-2.2,2.8-2.4,3.1-2.1,2.8l.3-.2ZM522.7,535.1l-2.8,2.2h-3.6c.3-.3,1.4-2,1.2-1.6h.3c.3-.5,1.7-2.7,1.4-2.3l.4-.4v-.6l.3-.3h6.2c-4.7,4.2-4,3.5-3.9,3.5l.6-.4ZM532.7,533.1h0l-3.5,2.3c-.7.4-3.7,2.2-3.1,1.8h-.9c.3-.4,4.1-3.8,3.6-3.5l1.1-1.1,1.2-1.3h3.5c-.3.4-2.2,2-1.8,1.7h-.1ZM536.4,534.4h0c.3-.4,3.7-3.1,3.4-2.8h1.1l-4.7,2.8h.2ZM538.6,528.4h-4.7l1.5-1.4c1-1.2,1.9-2.5,2.7-3.8l1.4-2.1.3-.5h6.5l-2.4,2.7c-5,5.3-5.3,5.4-5.1,5.2h-.3ZM553.3,525.7l.7-.6-.7.6Z"/>
      <path class="st0" d="M539.2,505.8l-.5.4h.9M456.1,506.2l-.5-.4-.3.4h.8ZM514.4,432.8h-3.2v4.4c1-.7,2.1-1.3,3.2-2v-2.4ZM495.2,445.1h4.4c1.5-1,3-2.1,4.7-3.2h-13.7c1.5,1.1,3.1,2.1,4.7,3.2Z"/>
      <path class="st0" d="M490.8,543.6"/>
      <path class="st3" d="M640.1,415.2s-1.7-.3-1.7-1.4c0,0,0-1,2.3-.6,0,0,2.7.9,3,1.4s-3-1.4-3.8-.9c0,0-.9.3,0,1.5"/>
      <path class="st3" d="M640,413.8c.5-.3,2.5.4,3.7.9h.4v-.4c-.3-.6-2.6-1.3-3-1.4s-1.6-.3-2.3,0c-.2.1-.3.3-.3.5,0,1.2,1.7,1.5,1.8,1.5h.5c-.2-.2-1-.8-.9-1.3l.4-.4-.2.5ZM637.4,397.6s-1.6.3-2-.6c0,0-.4-1,2-1.4,1.1-.2,2.2-.2,3.3,0,0,0-3.4,0-3.9.6,0,0-.8.7.7,1.3"/>
      <path class="st3" d="M636.8,396.5c.3-.5,2.5-.7,3.7-.6h.5c-.5,0,0-.8-3.8-.5h0c-1.1.2-1.7.6-2,1.1,0,.2,0,.4,0,.6.4,1.1,2.1.7,2.2.7h.5c-.6-.3-1.3-.4-1.3-.8v-.3h.1ZM656.8,395.3l-1.7.5-16-12,1.7-.4"/>
      <path class="st3" d="M638.9,383.5h-.5l16.6,12.5,2.4-.7c-.8-.6,4.2,3.1-16.7-12.3l-1.8.4h0ZM626,415.5c.5.2.9.5,1.2,1,0,0,.4.5,0,.6s-.9,0-2.1,0c-.7-.1-1.4.2-1.9.8,0,0-.5.7.3,1.7.8.9,1.8,1.4,3,1.5-.9-.5-1.7-1.2-2.4-2,0,0-.8-1-.6-1.3s0-.5,1.1-.3,4.3.7,3.5-.8c-.3-.5-.7-1-1.2-1.4l-1.1.3h.1Z"/>
      <path class="st3" d="M627.1,415.4c.4.4.8.9,1.2,1.4v.5l-.8.3h0c-1.4.2-3-.6-3.7,0l-.2.3h0c-.4.7,2,2.8,2.8,3.3h0c-1.1-.1-2.2-.7-2.9-1.5-.7-1-.3-1.6-.3-1.6h0c.7-1.3,2.3-.6,4-.6h.3v-.6h0c-.7-.9-1.2-1-1.3-1v.2l1-.2v-.5ZM626.7,524.3s2.6.8,1.8,2c-2.2,1.3-5.1.7-6.6-1.4-.3-.3-2.5-7.3,5.4-6.7,6.2,1.3,12.3,3,18.3,5,5.7,1.8,7.6,1.1,7.6,1.1l2.1,2.2c-3.2.1-6.3-.3-9.3-1.4-5.7-2-11.6-3.6-17.6-4.7-5.8-.3-4.7,4-4.7,4.2l2.8-.3h.2ZM660.5,511.7c-1.4-.9-3-2-2.8-1.9s-32.7-4.1-33-5.2c0,0,2,2.7,9.7,4s19,2.8,19,2.8l-1.6,1.4s8.6-1.1,8.6-1.1ZM666.4,478.7l-3-1.6s-33-1.2-33.3-2.2c0,0,2.2,2.5,10.1,3.1,7.8.6,19.2,1,19.2,1l-1.4,1.5s8.4-1.9,8.4-1.9ZM663.7,430.5l-2.8-1s-28.4,5.1-28.8,4.2c2.9,1.5,6.2,1.9,9.3,1,6.8-.9,16.6-2.7,16.6-2.7l-1,1.8,7-3.4h-.2ZM656,505.6s.6-1.1,1-1.2.6,0,.7,0,.4,1.1-.7,1.4l-1-.4v.2ZM655.4,506.1c.8.3,1.7.5,2.6.7,1.2.5,1.1-.8,1.1-.8-.3-1.1-.9-2.1-1.7-2.8-1.7-1.1-2.7,1.2-2.7,1.2h-.4c-1.6-3.2-2.9-6.5-4.1-9.8v.4c0,3.7,1.4,7.2,3.7,10v.4l-1,.8,1.4,1,1-1v-.2Z"/>
      <path class="st3" d="M660.7,437.8s0-1.4.6-1.6.6-.4.8,0,.9.9-.3,1.7h-1.1ZM660.4,438.8c.4,0,3-.4,3-.4.5,0,.9-.3,1-.8,0-.2,0-.4-.1-.6-.7-1-1.8-1.8-3-2.1-2.2-.4-2.3,2.4-2.3,2.4h-.5c-3-2.6-5.9-5.5-8.5-8.5v.5c1.7,3.8,4.6,6.9,8.3,8.8v.4c0,.3-.7,1.2-.7,1.2l1.9.5.7-1.4h.2ZM625.2,340.7s-.3-1,0-1.2l.5-.3s.8.3.3,1.1l-.6.3h-.1ZM625.2,341.4l1.8-1.1c.3-.1.4-.5.3-.7,0-.1-.2-.2-.3-.3-.7-.5-1.6-.7-2.5-.6-1.5.3-.8,2.1-.8,2.1h-.3c-2.6-.8-5.2-1.7-7.7-2.9v.3c2.1,1.9,4.8,3,7.6,3.2h0v.9l1.3-.2v-1l.6.3ZM615.9,524.5l1.5,1.6,2.4-1.6-1.5-1.7"/>
      <path class="st3" d="M617,521.6l1.5,1.7,2.3-1.6-1.4-1.7M625.5,502.8l1.4,1.7,2.4-1.6-1.5-1.7"/>
      <path class="st3" d="M626.2,499.9l1.4,1.7,2.4-1.6-1.3-1.7M630.7,386.5l-.3,2.9h2.2l.4-2.9"/>
      <path class="st3" d="M628.8,383.8l-.3,2.9h2.2l.4-2.8M641.5,467.9l2.1.8,1.4-2.5-2.1-.7M645.5,424.6l1.9,1,1.7-2.3-1.6-1.1M637.7,403.6l2.1.5,1-2.7-2.4-.9M619.5,355v2.9l2.1-.4v-2.8M598.3,334.4v2.9l2.1-.4v-2.8M620.6,375.8v2.8l2.1-.3v-2.9M640.2,491.4s-1.6-1.2-1-2.3c0,0,.6-1,2.8.7,0,0,2.4,2.3,2.5,2.9s-2.6-3-3.6-2.9c0,0-1.3,0-.7,1.6M661.5,456s-1.7-.8-1.4-2.1c0,0,.3-1.2,2.8,0,0,0,2.7,1.9,2.8,2.5s-2.9-2.6-4-2.2c0,0-1.1,0,0,1.6"/>
      <path class="st3" d="M662,454.5c.7,0,2.6,1.2,3.7,2.2l.4.4v-.6c0-.7-2.4-2.3-2.8-2.7h0c-.4,0-1.7-.9-2.6-.5s-1,1.7,1,2.8l.6.3s-.8-1.2-.6-1.7h.4v-.2ZM662,455.8s-1.6-.7-1.3-1.8l.3-.3c.3,0,.9,0,2.2.5h0c1,.7,1.9,1.4,2.7,2.3h.2c-.3-.3-3.1-2.7-4.1-2.3h0c-.3,0-.6.2-.7.4,0,.3,0,.9.3,1.5h0l.3-.3ZM652.6,448.4s-1.8-.7-1.4-1.9c0,0,0-1.2,2.8,0,0,0,2.8,1.7,3,2.3s-3.1-2.3-4.1-2c0,0-1.3,0,0,1.7"/>
      <path class="st3" d="M652.8,447.2c.6-.3,2.8,1,3.9,1.9l.4.4v-.6c0-.7-2.8-2.3-3.1-2.4-1-.5-2.7-.9-2.9,0s1.5,2.1,1.6,2.1l.6.2c0-.3-.9-1.3-.7-1.7h.4-.1ZM652.8,448.5s-1.7-.7-1.4-1.7l.3-.3c.3,0,.9,0,2.2.3h0c1.1.7,2.8,1.8,2.8,2.2v-.5c-.2,0-3.1-2.4-4.1-2h0c-.2.1-.4.3-.5.6-.1.5,0,1.1.4,1.5l.3-.3h0ZM640.8,423.8s-2-.3-1.9-1.6c0,0,0-1.2,2.7-.7,1.2.4,2.3.9,3.4,1.6,0,0-3.5-1.6-4.7-1,0,0-1.2.4,0,1.7"/>
      <path class="st3" d="M640.7,422.5c.6-.4,2.9.4,4.2,1h.5l-.3-.5c-1.1-.8-2.3-1.4-3.5-1.7h0c-1.3,0-2.1,0-2.6.3-.2.2-.3.4-.3.7,0,1.4,2,1.7,2.1,1.8h.6s-1.1-1.1-1.1-1.5l.4-.4v.3ZM640.7,423.8s-1.7-.3-1.7-1.4v-.4c.3,0,.8-.4,2.3,0h0c1.2.3,2.3.8,3.3,1.5v-.3c-.4,0-3.7-1.7-4.7-1h0c-.3,0-.5.3-.6.6,0,.6.3,1.1.7,1.4v-.4h.7ZM640,415s-1.5-.3-1.4-1.2v-.3s.7-.3,2,0h0c1.1.3,2.7.9,2.8,1.3v-.2c-.3,0-3.2-1.4-4-.9h0s-.4,0-.5.5c0,.5.2,1,.7,1.3l.4-.4ZM637.3,397.4s-1.5.4-1.8-.5v-.3c0-.3.6-.7,1.8-.9h0c1-.1,2.1-.1,3.1,0v-.3c-.4,0-3.5,0-4,.7h0c-.2.2-.3.4-.3.7,0,.3.4.6,1,.9v-.4h.2ZM643.7,376.8s-1.9.4-2.3-.7c0,0-.5-1.1,2.1-1.6,1.2-.2,2.5-.2,3.7,0,0,0-3.8,0-4.4.7,0,0-.9.8.8,1.5"/>
      <path class="st3" d="M643.1,375.5c.4-.6,2.8-.7,4.2-.7h.6l-.5-.3c-1.3-.2-2.6-.2-3.8,0-.3,0-1.9.4-2.3,1.2,0,.2,0,.4,0,.6.5,1.3,2.4.8,2.5.8h.6c-.3,0-1.4-.5-1.4-1v-.3l.2-.4ZM643.8,376.6s-1.8.3-2.1-.6v-.4c0-.3.7-.7,2.1-1h0c1.2-.2,2.3-.2,3.5,0v-.3c-.4,0-3.9,0-4.7.7h0c-.2.2-.3.5-.3.8,0,.4.5.7,1.2,1v-.4h.3ZM606.5,374.6s-1.9,0-2.2-1c0,0-.3-1.1,2.3-1.4,1.2,0,2.5.2,3.7.6,0,0-3.8-.6-4.7,0,0,0-1,.7.7,1.6"/>
      <path class="st3" d="M606.1,373.2c.4-.5,2.8-.3,4.3,0h.6l-.4-.7c-1.2-.4-2.5-.6-3.8-.6-.4,0-1.9,0-2.4,1-.5,1,0,.6,0,.6.3,1.3,2.3,1.1,2.4,1.1h.6c-.3,0-1.3-.6-1.4-1.1v-.4h.1ZM606.6,374.5s-1.8,0-2.1-.8v-.3c0-.3.7-.7,2.1-.8h0c1.2,0,2.4.2,3.5.5v-.4c-.4,0-3.9-.5-4.7.3h0c-.2.2-.4.4-.3.7,0,.4.4.7,1,1.1v-.3h.4ZM598.1,355.8s-1.7.2-2-.8c0,0-.3-1,2-1.2,1.1,0,2.2.2,3.2.5,0,0-3.3-.5-3.9,0s-.8.6.6,1.3"/>
      <path class="st3" d="M597.6,354.6c1.2-.4,2.5-.4,3.8,0h.5l-.3-.3c-1-.4-2.2-.6-3.3-.6,0,0-1.7,0-2.1.8s0,1.6,2,1.5h.5c-.3,0-1.1-.5-1.2-1v-.3h0ZM598,355.7s-1.5,0-1.7-.7v-.4c.5-.4,1.1-.7,1.8-.7h0c1,0,2.1.2,3.1.5v-.3c-.4,0-3.4-.5-4,.3h0c-.2.1-.3.4-.3.6,0,.3.3.7.9,1v-.4h.3ZM585.7,340.1s-1.4.8-2.1,0c0,0-.6-.7,1.5-1.8,1-.4,2.1-.6,3.2-.7,0,0-3.3.7-3.5,1.5,0,0-.7.7,1,1"/>
      <path class="st3" d="M584.8,339c0-.6,2.2-1.2,3.5-1.4h.4l-.4-.2c-.6-.3-2.8.5-3.3.7h0c-1,.5-1.5.9-1.6,1.4,0,.2,0,.4,0,.6.7,1,2.2,0,2.3,0h.4c-.3,0-1.3,0-1.4-.5v-.5h.2ZM585.6,339.9s-1.4.7-1.9,0v-.3c0-.3.4-.7,1.5-1.3h0c1-.4,2-.6,3-.6v-.3c-.3,0-3.3.7-3.7,1.6h0c-.1.2-.1.5,0,.7.3.4.7.6,1.2.7v-.5h0ZM585.4,351s-1.5.7-2.1,0c0,0-.6-.7,1.5-1.8,1-.3,2.1-.5,3.1-.6,0,0-3.3.7-3.5,1.5,0,0-.7.8,1,1"/>
      <path class="st3" d="M584.5,350.1c0-.6,2.2-1.2,3.5-1.4h.5-.4c-.6-.3-2.8.5-3.3.6h0c-1,.5-1.5,1-1.7,1.5s0,.5,0,.5c.7,1,2.2.2,2.3.2l.5-.2h-.5c-.4,0-.7-.2-1-.4v-.8h0ZM585.3,350.9s-1.4.7-1.9,0v-.2c0-.3.3-.8,1.4-1.3h0c1-.4,2-.6,3-.7v-.3c-.3,0-3.3.7-3.7,1.6h0c-.1.2-.1.5,0,.7,0,.3.6.5,1.3.6l-.2-.5ZM582.8,327s-1.4.7-2.1,0c0,0-.7-.8,1.5-1.8,1-.4,2.1-.6,3.1-.6,0,0-3.3.7-3.5,1.5,0,0-.6.8,1,1.1"/>
      <path class="st3" d="M582.1,326c0-.6,2.2-1.2,3.5-1.4h.5-.4c-1.1,0-2.2.2-3.3.6h0c-1,.5-1.5,1-1.6,1.4s0,.6,0,.6c.7,1,2.2.2,2.3.2l.5-.2h-.5c-.4,0-.7-.2-1-.4v-.7ZM582.9,326.9s-1.4.6-1.9,0v-.3c0-.3.4-.7,1.4-1.3h0c1-.4,2-.6,3.1-.6v-.3c-.4,0-3.4.7-3.7,1.6h0c-.5.8,0,1.2,1.1,1.4v-.5ZM581.4,307.8s-1.6.2-1.9-1c0,0-.3-1.1,2-1.4,1.1,0,2.2.2,3.2.6,0,0-3.3-.6-3.9.3,0,0-.8.7.6,1.5"/>
      <path class="st3" d="M580.8,306.5c.4-.6,2.5-.4,3.7,0h.5l-.4-.4c-.5-.6-3.5-.6-3.3-.6-1.1,0-1.8.4-2.1,1s.3,1.9,2,1.7h.5c-.2,0-1.2-.6-1.2-1.1v-.3l.2-.2ZM581.2,307.6s-1.5.2-1.7-.8v-.3c0-.3.7-.6,1.8-.7h0c1,0,2.1.1,3,.5v-.3c-.3,0-3.4-.6-4,.3h0c-.2.1-.3.4-.3.7,0,.4.3.8.9,1.1v-.3h.3ZM630.2,486.6s-1.4-1.1-.9-2.1c0,0,.6-1.1,2.7.6,0,0,2.2,2.2,2.2,2.8s-2.3-2.9-3.4-2.8c0,0-1.1,0-.6,1.6M631.2,530.3c-.8-.3-1.3-1.1-1.2-2,0,0,0-1.4,2.3-.6,0,0,2.3,1.4,2.4,2.1,0,0-2.6-2.1-3.4-1.5,0,0-1,.4,0,2M639.5,514.7l-.7-1.4c-1.4.8-3.2.5-4.3-.7.9,1.9,3.1,2.7,5,2M666,449.4l-2-1.4c-1.5,2.2-4.3,3-6.8,2.1,2.7,2,6.5,1.7,8.8-.7M652.2,489.2l-1.6-1.4c-1.5,1.8-4.1,2.3-6.2,1.3,2.2,2,5.5,2,7.7.2M664,488.6l-1.2-1.3c-1.4,1.3-3.4,1.5-5,.5,1.6,1.8,4.2,2.1,6.2.8M653.7,438.1l-1.4-1.5c-1.6,1.5-4,1.8-5.9.5,1.8,2.1,5,2.6,7.3,1M624.1,367.8h-2.7s-.3,3.6-5.2,5.3c3.5,0,6.6-2.1,7.9-5.3M578.1,301.1l-1.5.9c.5,1.6.1,3.4-1.1,4.7,1.9-1.2,3-3.5,2.6-5.8M574.7,314l-1.5.9c.5,1.7,0,3.5-1.4,4.7,2-1.2,3.1-3.4,2.9-5.7M650.5,377.7h-2.4s0,3.3-4.9,4.7c3.2,0,6.1-1.8,7.4-4.7M653.9,532.4l-.8-1.2s-3.9.8-5.6-.7c0,0,1.2,3.4,6.3,2.1M657.4,520.6l-1.2-1.2s-3.6,1.7-5.6.7c0,0,2,3,6.8.6M659.7,501.1l-1.4-.6-4.4-13.3,1.3.6M665.5,469.9l-1.6-.3-7.9-13.5,1.5.4M646.2,522.1l-1.1-.5-3.6-10.7.9.5M647.7,539.9l-1.3-.7-3.3-14.3,1.3.7M663.1,427.6h-1.6l-10.6-13.3h1.4"/>
      <path class="st3" d="M650.5,413.7l11,13.7h2.1l-11.1-13.7h-2ZM663.1,427.1h-1.6l-10.6-13.3v.3h1.4l10.7,13.2v-.3h0ZM656.8,395.1l-1.7.5h0l-16-12.1v.5l1.6-.4h0l16.1,12M644.1,379.9l-1.7.7-17.3-10.2,1.6-.6"/>
      <path class="st3" d="M624.4,370.4l17.9,10.5,2.2-.9-17.9-10.4-2.1.7ZM643.8,379.7l-1.7.7h0l-17.1-10.2v.5l1.6-.6h0l17.3,10.1v-.5h-.1ZM612.6,335.4l-1,.7-13-4.4,1-.6"/>
      <path class="st3" d="M598.1,331.6l13.4,4.7,1.4-.9-13.4-4.7-1.4.7v.2ZM612.5,335.2l-1,.7h0l-12.9-4.7v.3l1-.6h0l13,4.3v-.2h0ZM564.7,332.3l9.1.8.5-.7-9.3-.8"/>
      <path class="st3" d="M565.2,331.9l8.8.7-.4.4-8.8-.8.4-.3ZM565.2,331.9h0l-.5.5h0l9.3.9h0l.5-.7h0s-9.3-.8-9.3-.8ZM564.2,334.2l9.1,1,.6-.7-9.3-.9"/>
      <path class="st3" d="M564.7,333.6l8.8.8-.4.4-8.8-.9.3-.4ZM564.7,333.6h0l-.6.6h0l9.3.9h0l.6-.6h0s-9.3-.9-9.3-.9ZM608.4,327l-1.4.8-16.5-5.7,1.2-.7"/>
      <path class="st3" d="M589.9,322s18.3,6.2,17.2,5.9l1.7-1.1-17.4-5.6-1.7,1h.2ZM608.2,326.7l-1.4.8h0l-16.5-5.6v.4l1.3-.8h0l16.6,5.6s0-.3,0-.3ZM637.3,442.5h-.6l-3.7-4.7h.5"/>
      <path class="st3" d="M632.6,437.4l4.1,5.1h1c-.4-.4-4.2-5.4-4-5.1h-1.1ZM637.3,442.1h-.4l-3.7-4.7v.4h.3l3.7,4.7v-.3h0Z"/>
      <path class="st3" d="M633.5,437.8h-.5l3.7,4.7h.5l-3.8-4.7ZM637.2,442.5h-.5l-3.7-4.7h.5l3.7,4.7h0Z"/>
      <path class="st3" d="M637.4,442.5l-3.7-4.7h-.2v-.4h-.5l.5.4h-.5l3.7,4.7.3-.3h0v.4h.5v-.3h0v.2ZM637.4,442.5h-.6v-.3l-3.9-5v.3h0v.3h.6s4.2,5.3,3.9,5v-.3h0v-.3h-.3l.3.2Z"/>
      <path class="st3" d="M633.5,437.8l3.8,4.7v-.3h-.6l-3.7-4.7h0v.3h.4ZM633.5,437.5h-1l4.2,4.9h1.2c-1.2-1.6-4.2-5.4-4.1-5.2h0l-.3.2ZM658.5,405.9l-1.3.3-12.4-12.6,1.2-.3"/>
      <path class="st3" d="M644.5,393.5l12.8,13,1.7-.5-12.9-12.8-1.6.4ZM658.5,405.5l-1.2.4h0l-12.4-12.6v.4l1.2-.3h0l12.5,12.5s0-.4,0-.4ZM611.2,346.1h-1.7l1.7,2.9s0,.4-.6,0l-3.1-1.6s2.4,3.4,5.6,2.3c0,0,.4,0,0-1.1-.4-1-1-1.8-1.7-2.6M662,497.4c-.4.3-.8.6-1.3.7-1,.3-1.1-.8-1.2-.9s1.4,0,1.2-.6,0-.2-.6-1c-1.1-1-2.2-1.8-3.4-2.7v-.7c1.3.3,2.7.4,4,.4,0,0,.6,0,.3-.5v-.4l1.3-.3c.4.3.7.8.9,1.2,0,0,0,.8-1.2,1-1.1.2-2.2.2-3.2,0,0,0-.5,0,0,0,1,.7,2,1.5,3,2.4,0,0,.7,1,.3,1.2M650.8,409.3c.1.5.1.9,0,1.4-.4,1-1.3.4-1.4.4s.7-1.2.3-1.3,0-.3-1.2,0c0,0-2.7.7-4.2,1.2l-.7-.3c1-.9,1.9-1.9,2.7-3,0,0,.3-.4-.3-.5l-.3-.3.4-1.3c.5-.1,1-.1,1.5,0,0,0,.8.3,0,1.5-.5,1-1.1,1.8-2,2.5,0,0-.3.3,0,0,1.2-.4,2.4-.7,3.7-1,0,0,1.4,0,1.3.4"/>
      <path class="st3" d="M645.9,409.5h0v.3h0c.9-.6,2.5-2.9,2.2-3.9,0-.2-.2-.4-.4-.5-.5-.1-1.1-.1-1.6,0h0l-.5,1.4h0l.3.4h0c-.8,1.1-1.6,2.1-2.7,2.9h0l1,.4h0c1.4-.4,2.8-.6,4.3-.8h1c0,.3-.5,1.1-.7,1.3h.5c.6.3,1.2,0,1.5-.5,0,0,0,0,0,0,.1-.5.1-1,0-1.5h0c0-.3-.9-.4-1.4-.4s0,0-3.8.9h.3ZM650.5,409.5h0c0,.4,0,.9-.2,1.3,0,.6-.7.4-1.3.3v.3c.3-.4.5-.9.4-1.4l-.3-.3h0s-.3-.4-1.4-.3c0,0-2.7.7-4.2,1.2h0l-.7-.3v.3c1.1-.9,2-1.9,2.7-3h0c0-.2,0-.3,0-.5-.1-.2-.3-.3-.5-.4h0l-.3-.4v.2l.4-1.3h0c.5-.1,1-.1,1.4,0v.3c.1.3.1.6,0,.9-.4.9-1.1,1.8-1.9,2.4v.4h.4s2.8-.9,3.7-1h0c.4,0,.8,0,1.1.3h0l.4.7ZM631.3,378.7c.1.4.1.8,0,1.2,0,.8-1,.6-1.1.6s.4-1,0-1.1,0,0-1,0c-1.1.5-2.2,1-3.2,1.7h-.7c.7-.9,1.3-1.9,1.8-2.9,0,0,0-.4-.3-.4v-.5c-.1,0-.1-1.1-.1-1.1.4-.1.9-.1,1.3,0,0,0,.7,0,.3,1.3-.2.9-.6,1.7-1.2,2.3,0,0-.3.3,0,0,.9-.5,1.9-1,2.8-1.4,0,0,1.3,0,1.2.3"/>
      <path class="st3" d="M630.3,378.2c-.7,0-2.8,1.4-2.8,1.4h0c.6-.7,1.6-2.8,1.2-3.5s-1.6,0-1.8,0h0v1.2h0l.3.3h.3c-.4,1-1,2-1.8,2.8h.9c1.1-.7,3.2-1.6,3.2-1.6h.7v1.2h.3c1.1,0,1.2-.5,1.3-.7.1-.4.1-.8,0-1.2h0v-.3c-.4,0-.9,0-1.3,0l-.3.5ZM631.3,378.5c0,.4,0,.7,0,1.1,0,.4-.3.5-1,.5h0s.4-.8,0-1.2h-.3c-.3-.7-3.9,1.3-4.4,1.7h-.6v.3c.7-.9,1.3-1.9,1.8-2.9h0v-.4h-.4l.5-.3h0v-1.1h0c.4,0,.8,0,1.2,0h0c.1.3.1.6,0,.8-.2.8-.5,1.6-1.1,2.3v.4h.4c.9-.5,1.8-1,2.8-1.4h.9l.2.4ZM582.1,315.5c.2.3.4.7.4,1.1,0,.8-.7.8-.8.9s0-1.2-.3-1,0,0-.9.4c-.9.8-1.7,1.7-2.5,2.6h-.5c.4-1.1.6-2.2.7-3.3,0,0,0-.4-.4-.3h-.4v-1.1c.3-.3.7-.5,1.2-.6,0,0,.7,0,.7,1.1,0,.9,0,1.8-.3,2.6,0,0,0,.3,0,0,.7-.8,1.4-1.6,2.2-2.2,0,0,1.1-.6,1.2,0"/>
      <path class="st3" d="M581,315.5c-.6.4-2.2,2.2-2.3,2.2h0c.4-.8.6-3.2,0-3.7l-.5-.2c-.5.2-.9.4-1.3.7h0c0,.4,0,.8,0,1.3h.6c0,1.1-.3,2.2-.7,3.2h.9c.8-1,2.5-2.5,2.5-2.6s.7-.4.7-.4h0v1.2h.3c.3,0,1,0,.8-1,0-.4-.2-.8-.5-1.2h0c-.3,0-1,.3-1.1.3l.5.3ZM582.1,315.5c.2.3.4.6.4.9,0,.5,0,.6-.8.8h0s0-.9-.3-1.2h0s-.3,0-1.1.4c0,0-1.7,1.6-2.6,2.6h-.3v.2c.4-1.1.6-2.2.7-3.4h0v-.4h-.7v-.8h0c.3-.3.6-.5,1-.6h.3c.5.4.3,2.6,0,3.4v.4h.4s1.6-1.8,2.2-2.2h0c.3-.2.6-.3.9-.3h-.1ZM650.4,504.4l-.7-.7c-.8-.1-1.7,0-2.4.3,0,0-1,.3-.9-.3s0-1,.7-1c1,.1,2.1.1,3.1,0l-.6-.7c-.7.2-1.4.2-2.1,0,0,0-1.1,0-1.1-1.6,0,0,0-.3,1.2-.4.8,0,1.6,0,2.3,0l-.7-.9c-1-.1-2-.1-2.9,0-.8,0-1.4.7-1.3,1.2s0,.9,1.3,1.6c0,0-2.1.7-1.4,1.8,0,0,.5,1,2.4.9l1.3-.3c.6-.1,1.1-.1,1.7,0"/>
      <path class="st3" d="M648.7,504.4l-1.3.3h0c-1.7,0-2.2-.8-2.2-.8,0-.8,0-.5,0-.6.3-.5.8-.8,1.3-.9h.4c-.3,0-1.3-.6-1.4-1.6h0v-.3c.2-.3.5-.6.9-.6,1,0,2,0,2.9,0h0l.7.9v-.3c-.7-.2-3.5-.3-3.7.4h0c0,1.7,1.2,1.8,1.2,1.8h0c.7.2,1.5.2,2.2,0h0l.6.7v-.3c-1,.1-2,.1-3,0-.8,0-1,.8-1,1.3v.4h1c.7-.3,1.5-.4,2.3-.3h0l.7.7.2-.4c-.6-.2-1.2-.2-1.8,0M649.8,504c-.9-.2-1.8,0-2.6.4h-.6s0-.9.7-.9c1,.1,2.1.1,3.1,0h.3l-.6-.7h0c-.7.1-1.3.1-2,0h0s-.8,0-.8-1.4h0l1-.3c.9-.2,1.9-.2,2.8,0l-1-1.4c-2.3,0-3.7,0-4.3.9v.7h0c0,.4,0,1,1.3,1.7v-.3s-1.2.4-1.5,1.2c-.2.3-.2.6,0,.9h0s.6,1.1,2.6,1.1h0c.4,0,.8-.2,1.2-.4.5,0,1,0,1.5,0h.6c-.4,0-1.5-1.4-1.4-1.2l-.4-.3ZM656.6,468l-.7-.7c-.8-.1-1.7,0-2.4.3,0,0-1,.3-.9-.3s0-1.1.7-1.1c1,0,2.1,0,3.1,0l-.6-.7c-.7.2-1.4.2-2.1,0,0,0-1,0-1-1.5,0,0,0-.4,1.2-.4.8,0,1.6,0,2.4,0l-.7-.9c-1,0-2,0-3,0-.7,0-1.3.7-1.3,1.2s0,.9,1.3,1.7c0,0-2,.6-1.3,1.8,0,0,.5,1.1,2.4,1,.4,0,.9-.2,1.3-.3.5,0,1.1,0,1.6,0"/>
      <path class="st3" d="M654.9,467.4l-1.2.4h0c-.9.1-1.7-.2-2.2-.9h0v-.6c0-.5,1-.8,1.3-.9h.4c-.3-.3-1.3-.6-1.5-1.7v-.3c.2-.3.6-.6,1-.7,1,0,2,0,2.9,0h0l.7.9v-.3c-.8,0-1.6,0-2.4,0-1.1,0-1.3.4-1.4.5h0c0,1.6,1.2,1.7,1.2,1.8h0c.7.2,1.5.2,2.2,0h0l.6.7v-.3c-1,0-2,0-3,0-.8,0-1,.8-1,1.3v.4c.3.1.7.1,1,0h0c.7-.3,1.5-.4,2.3-.4h0l.7.7v-.3c-.6-.1-1.2-.1-1.7,0M655.8,466.9c-.9-.1-1.8,0-2.6.4h-.6s0-.9.6-.9c3.3,0,3.2-.2,3.4-.2-.3-.3-.6-.6-.8-1-.7.2-1.4.2-2.1,0h0c-.6,0-.9-.7-.8-1.4h0l1-.3c.8-.1,1.5-.1,2.3,0h.5l-1-1.4c-1,0-2.1,0-3.1,0-.5,0-1,.3-1.3.7v.6c.2.8.7,1.4,1.4,1.8v-.4s-1.3.4-1.5,1.2c-.1.3-.1.6,0,.9h0s.6,1.1,2.6,1.1h0c.4,0,.9-.2,1.3-.4.5,0,1,0,1.4,0h.7l-1.3-1.3v.4ZM656.5,424.8l-.9-.6c-.8.1-1.6.4-2.2,1,0,0-.8.5-1,0s-.3-1.4.7-1.4c1-.2,2-.5,2.9-.9l-.7-.5c-.6.4-1.3.6-2,.6,0,0-1,.2-1.4-1.2,0,0,0-.3,1.1-.7.7-.3,1.5-.4,2.3-.5l-.9-.7c-1,.2-1.9.5-2.8.9-.7.3-1,1.1-.9,1.4s.3.8,1.7,1.3c0,0-1.8,1.2-.8,2.1.7.6,1.7.7,2.6.3.4-.2.8-.4,1.1-.6.5-.3,1-.5,1.5-.6"/>
      <path class="st3" d="M655.1,424.9l-1.1.6h0c-1.6.5-2.3,0-2.3-.3h0l-.2-.5c0-.5.8-1.1,1-1.3h.4-.4c-1.3-.4-1.4-.9-1.5-1.2v-.3c.1-.4.4-.7.7-.8.9-.3,1.8-.6,2.8-.8h0l.9.7v-.3c-.8,0-3.5.6-3.5,1.4h0c.4,1.6,1.6,1.4,1.7,1.4h0c.8,0,1.5-.3,2.1-.7h0l.7.5h0c-.9.3-1.9.6-2.9.8-.7.2-.7,1.1-.6,1.5l.3.3h1c.6-.5,1.3-.8,2.1-.9h0l.8.6v-.3c-.5.1-1,.3-1.4.6M655.9,423.8c-.9.1-1.7.5-2.4,1h-.6s0-.9.3-1c1-.2,2.1-.6,3-1h0l-1-.7c-1.5.7-2.8,1.3-3.3-.4h0s0-.2.9-.6c.9-.3,1.8-.5,2.7-.6l-1.3-1.1c-1.9.5-2.7.8-3,.9-.7.3-1.1,1-1,1.7h0c0,.4.4.9,1.7,1.3v-.3s-1.1.7-1.2,1.5c0,.3.1.6.3.8h0s.8,1,2.8.4c1-.5,1.8-1.2,2.6-1.2h.6c-.3,0-1.8-1-1.5-.9h.3ZM626,415.7c.4,0,.9.7,1.1,1v.3h-2.1c-.8-.2-1.6.2-2,.8-.7.9,1.1,3.4,3.5,3.4h.4-.3c-.8-.5-1.5-1.2-2.1-1.9-.4-.4-.8-1-.7-1.2h0s0-.4,1-.3c.9,0,1.9,0,2.8,0h0c.8,0,1.3-.4.9-1.1-.4-.5-.8-1-1.3-1.4h0l-1.1.3h0ZM638.1,524.8c1.1.2,2.1,0,3.1-.6l.6.4c-4.1,3.6-1.8,8.5-1.6,10.2s-2.2,0-3.5-1.8c.8,0,1.4,1.5,2.1,1.9s.3-.7,0-1.2c-1.7-5.9.8-8.4.8-8.4-.6,0-1.1-.2-1.6-.6"/>
      <path class="st3" d="M639.5,525.4c-.5.6-.9,1.3-1.1,2-.7,2.1-.7,4.3,0,6.4h0c0,.4.3,1,0,1.1h0c-.3,0-.5-.5-.7-.8-1.1-1.5-1.4-1.1-1.7-1.2h0c.6.7,2.4,3.2,3.4,2.7s-2.9-6.7,1.9-11.1h0c0-.3-.5-.5-.7-.6h0c-.9.5-2,.7-3,.6h-.3.2c.5.4,1,.6,1.6.6l.4.2ZM638.1,525c1.1.2,2.2,0,3.1-.6h0l.6.3h0c-4.7,4.3-.7,10.4-1.9,11s-2.6-2-3.1-2.7h0c.7,0,1.4,1.4,2.1,2h.4c.3,0,0-1.1,0-1.4h0c-1.7-5.8.7-8.3.8-8.3h0c-.6,0-1.3-.2-1.8-.6h-.2ZM629.7,514.9s3.1,3.7,3.3.3c0-1.9-1-3.7-2.7-4.7-1-.5-2.2.9-2.2.9l-.5-1.9-1.2-.5,1.1,7.7,1.5,1.3-.4-3.5c.1-1,.9-1.8,2-2,.3,0,.5,0,.7,1.4s-1.6,1.1-1.6,1.1M637.7,438.6s3,.9,1.9-1c-.6-1.1-1.9-1.8-3.2-1.6-.7,0-.8,1.2-.8,1.2l-.9-.7h-.8l3.3,3.7h1.3l-1.4-1.7c-.3-.6-.2-1.3.3-1.7,0,0,.3,0,.9.5s-.4,1.1-.4,1.1M634.6,379.9c1.9-.4,2.2.3,2.2.4,0,.9-.3,1.8-1,2.4,0,0-1.5-1.8-1.2-2.8M637.1,383c.6-.4.9-.7,1-2.1-.3-.3,1.9.5,1.9.5,0,0,.5-.7-2.9-2s-3.9.6-3.9.6c0,0,0,2.9,1.9,3.5.7.1,1.4,0,2-.5M616.7,335.1s2-.7,1.7,1.3c0,0-2.1-1.6-3.5-.6s-7,8-8.3,9.3c4.7-1.4,8-8.2,8-8.2,0,0,.8-1,3.8,1.8,1.9,0,2.1-1.1,2.1-.9.4-3.4-.4-3.6-.6-3.8-1.6-.8-3.1,1.2-3.1,1.2M572.8,308s1.1-1.1,1.5.3c0,0-1.9-.5-2.5.6s-2.6,7.5-3.1,8.7c1.8-2.2,3-5,3.2-7.9,0,0,.3-.9,3.1,0,1.3-.7,1.2-1.3,1.2-1.2-.7-2.5-1.4-2.4-1.5-2.4-1.4,0-1.9,1.7-1.9,1.7M596.1,317.2s1.6-.5,0-1c0,0-4-1-5,.3,0,0-.5.6,4,2.3.7.3,1.9,1.1,1.6,1.3-2.5-.7-4.9-1.8-7-3.3-.5.7,1.6,1.9,1.7,1.9,4.7,2.4,5.2,2,5.4,1.9.4-.3.6-.7.5-1.2,0,0,.3,0-3.1-1.8-.7-.3-1.4-.7-2-1.1,0,0,.5-.4,3,0,.3.1.6.3.8.6M639.3,496s-2.9.7-3.6.3-1-2.6-1-2.6l4.7,2.3ZM628.3,495.7s-.5-1.7,1.7-2c0,1.4-1.7,2-1.7,2M662.8,482.2c0,.5,0,.7-.3,1.2-1.4.4-2.8.5-4.2.4-6.3-.7-12.7-1-19-.9-3.9-.2-7.2,2.9-7.4,6.8,0,.3,0,.7,0,1,0,0-1.1-1-1.6-.8s.4,1.3.4,1.3c0,0-4.7,1.1-5,3.2,0,1.8,1.3,3.2,3.1,3.3.6,0,1.1-.1,1.6-.4,0,1.4.7,5,.7,5,0,0,0,.9,2.3,2,1.4.3,2.5.6,5.6-1.2,0,0,1.4-1.4-2-2.1-1.1.9-2.5,1.3-3.8,1.1l.3-6.5c.9,1.6,2.4,2.6,4.2,2.9,1.5.2,3,.1,4.4-.3,2-.5,1-1.4,1-1.4,0,0-6.2-3.3-8.1-4.7.3-6.7,4.4-6.7,5-6.8h9.3c5.3.6,10.6.7,15.9.3,1.8-.7-2-3.8-1.7-2.8"/>
      <path class="st3" d="M634.4,465.5c-2.6.8-2,4.2-2,4.2,0,0,0,2.7,8.2,2.9,8.2.2,19.2,0,19.2,0l-1.4,1.6,8.4-2.3h0l-3.1-1.5s-18.2.3-27.6,0c-2.7-.4-1.3-3-.8-3.2.9-.4,1.9-.4,2.8,0-3.4-5.3-4.6-11.7-3.3-17.8,1.5,2.7,4.3,4.4,7.4,4.3-.2,1.7.4,3.5,1.7,4.7,0,0-4.2,2,0,4.7,1.5,1.2,5-1,5-1-.8-.5-1.6-.9-2.5-1-.4.7-1.7.4-1.7.4,0,0-.6-2.4,3-1.9.3,0-3.8-3.4-3.2-5,.7-2.5,4-4,3.9-4-.7-.6-1.6-1-2.6-1,0,0-2.5,1.4-3.1,1.9-1,.7-2.4.7-3.4,0-1.3-1.3-2.5-2.7-3.5-4.2,1.9-2.3,4.7-3.5,7.7-3.4,5.7-.3,11.1-.5,15.7-.9,2.4,0,4.8-.7,6.8-1.9l-2.7-1.3c-2.5,1.2-5.2,1.8-7.9,1.7-4.2-.3-8.5-.2-12.7.2-3,.3-5.8,1.3-8.3,3,0,0-3.7-7.1-1.1-10.2,2-2.4,5.4-3.1,8.2-1.6.8.5,1.2-.5,1.2-.5-3.3-2.2-7.7-2.2-11,0,0,0-4.7,3.9,1,13.7,0,0-3.5,6.3,1.5,18.7M636.4,425.3c.8-.1,1.5-.1,2.3,0-1.1,2.9-4.5,4.4-7.4,3.2-.3-.1-.6-.3-.9-.5-2.1-2.2-1.9-5.7.3-7.8.6-.6,1.3-1,2.1-1.2,3.2-1.3,15.2-1.9,25.9-5.9.9.2,1.7.5,2.6.8-2.3,3.6-23.9,5.3-26.9,6.9-4.7,2.9-1.4,6.4-1.4,6.4,0,0,.5,0,3.5-2.2M596.1,328.7l-2.2,1.4v1.5c-.5,4.7-.4,9.4.4,14,0,1.4-.8,1.4-.8,1.4,0,0-14-4.4-16-6.9s0-3,0-3c1.5-1,3.2-1.7,4.9-2.2,5.3,1.1,5.2-1.9,5.3-2.3,2.8-2.7-1.4-18-.8-19,.4,0,1.3,1.4,1.3,1.4,0,0-.3-3.1-.6-6,4.7.6,23.3,18.1,23.9,19.4s-5.6-.6-12.4-.9c4.2,1.2,8.6,2,12.9,2.4,3.7,0,1.4-3.3,1.4-3.3-7.1-7-14.9-13.3-23.3-18.7-.9-.3-1.8-.1-2.5.4v-.7s-2.2,1.1-2.3,1.4c-1.7,7,2.1,16,1.4,22.5,0,1.7-3.5.7-3.5.7-4.9-2.3-10.2-3.6-15.6-3.9-10.4.7-8-4.3-8-4.3,1.7-3.3,4.8-5.7,8.5-6.6-5,.1-9.4,3.6-10.6,8.4,0,0-1.1,4.3,6.2,4.7,3.8-.2,7.5.3,11.1,1.4l5.9,2.4c-2.3.7-4.4,2-5.8,3.9-1.7,3.1,2.7,5.2,2.7,5.2,0,0,11.6,5.2,13.4,5.6s5.9,0,5.2-6.4c-1.2-8-.4-8.1-.4-8.1l1.1,1.2-.7-6.9Z"/>
      <path class="st3" d="M629.8,402.7c.9-.5,2.6,1.1,2.5,2.1s.3,7.4.3,9.3c-3.2-2.5-5.7-5.9-7.3-9.7,1.7-.4,3.2-1.1,4.7-2M621.3,389.9s2.9,0,3.2,1.3-2.4,2-4,.3c0-1.4.7-1.6.7-1.6M629.4,360.4c1.6,0,.4,2.3.4,2.3-.3-.7-.5-1.5-.4-2.3M631.2,396.5c7.9-3,21.8-9.3,23.6-12.4l-3.1-.3c-8.8,5.5-18.2,9.9-28,13.1-1.4.5-2.7-2.6-2.7-2.6,0,0,7.6-.7,5.7-4.7-1.8-3.2-7.4-1.4-7.9,0-1.4-1.2-1.6-3.3-.4-4.7.4-.5.9-.8,1.5-1,0,0-9.3-2.4-7.8-10.6.9-3.7,1.9-7.3,3.2-10.8,1,.5,2.2.7,3.4.6,2-.8,3.8-1.8,5.5-3l.7,1h1.6c.2,1.4.5,2.7,1.1,4,.9,1.7,2.4.3,2.4.3,0,0,5-4.3,1-6.7-1.3-.6-2.8.8-4.4,0s-.7-1.9,0-3.7l-2.7,1c-.4,1.8-1.5,3.4-3,4.4-1.9,1.1-5.2-.7-5.2-.7l3.7-15.9s0-.6.9-.2c6.7,1.8,22,25.6,21.8,26.4s-9.7-2.2-10.7-.4c3.8.4,7.6,1.1,11.4,2,2.6,0,2.1-1.8,2.1-1.8,0,0-15.1-24-23.7-28l-1.1.4-1.2-.3c-.8,0-1.5.5-1.9,1.2-.6,1.1-3.7,15.1-4.2,15.4-4.5-1.5-8-4.9-9.8-9.3-2.4-6.3,6.7-9.1,7.2-9.3-4.4,0-8.3,3.1-9.3,7.5-.1,2.6.7,5.2,2.4,7.2,2.6,2.7,5.5,4.9,8.8,6.6,0,0-1,2.4-1.2,2.8s-.7.6-1.5.7-3.1-3.5-3.1-3.5c0,0-2,.3-2.1.8-.3.6-.3,1.2,0,1.8-4.1-3.3-8.7-5.9-13.5-7.8-3.6-2.2.8-4.7,1.1-4.7,1.8-.7,7.8-.4,7.4-.8-2.6-1-5.5-1.1-8.3-.5-1.9.5-3.4,2.1-3.9,4-.7,3.5,8.9,6.4,11.7,8.4,2.3,1.9,4.3,4.1,5.9,6.6l2.4-.5.5-2.5s.7,1.8,4.2-.4c-2.1,5.3-4.2,12.3.3,15.6,1.4,1.2,2.9,2.2,4.4,3.2-1.3.8-1.9,2.4-1.4,3.9.5,1.5,1.5,2.9,2.8,3.7.9,7.7,5.7,6.5,5.7,6.8-1,1.3-1.4,3-1.1,4.7l-1.5.5s-.4,1.5,1.8.9c1.9,4.5,5,8.4,9.1,11.2l1.1,2.1h2.3s0-9.8-.3-14c-.4-2.5-2.8-4.3-5.3-3.9-.5,0-1,.3-1.5.5-.7.3-3.1,2.6-3,1.9,0-4.1,6-6.2,6.1-6.2"/>
      <path class="st3" d="M405.2,310.3s.9,3.1.8,2.9,21.3,22.2,20.8,23.3c0,0,.3-3.1-4.2-8.2s-12.7-14-12.7-14h2l-6.7-3.9v-.2ZM400.5,315h-.9v-.4s0-.6.8-.3l.3.5h-.2ZM401,315l-.9-1.4c-.1-.2-.4-.3-.6-.2,0,0-.1.1-.2.2-.2.6-.2,1.2,0,1.8.3,1.1,1.6.5,1.6.5v.2c-.4,1.9-.9,3.9-1.6,5.7h0c1.2-1.7,1.9-3.7,1.8-5.7v-.2h.7v-.9h-.8Z"/>
      <path class="st3" d="M401.7,314.9v.9h-.7v.3c0,2-.5,4.1-1.8,5.7h0c.7-1.9,1.2-3.9,1.6-5.8h0v-.4h0c-.3.1-.7.1-1,0-.7-.3-.6-1.7,0-2.2h.3v.3h0l1,1.2h.9-.2ZM401.2,314.9l-1.1-1.3h0l-.5-.3c-.7,0-1.2,2.3,0,2.8.4.2.8.2,1.2,0h0c-.4,2.1-1,4.1-1.7,6.1h.3c1.2-1.7,1.9-3.7,1.8-5.8h0c.2,0,.3,0,.5,0h0c0-.4,0-.8,0-1.2h-.7l.2-.3Z"/>
      <path class="st3" d="M399.7,314.2l-.3.4.3.4h1l-.3-.6h-.7v-.3ZM400.6,314.8c-.3,0-.7.2-.8,0h0v-.3h.3l.3.4h.2ZM426.7,317.8s-1.4,0-1.4-.3,0-2.4,3.2-1.6c0,0,.5.8-1.9,2M430.3,313.8c-3.7-2.2-5.6-.6-5.6-.5-1,1.3-1.2,3.2-.4,4.7.5,1.6,2.1,2.5,3.7,2.1.1,0,.2,0,.4-.1,0,0,2-1.9,3-2.1,0,0,1.4-.4,1.8.5v1l-.6,2.6s-2,5.6-2.2,6.1-4.2,8.7-4.4,9-4.4,8-4.7,8.5,7.8-8.9,8.6-10.1c1.3-2.7,5.5-12.5,4.7-15.3-.5-2.8-2.2-5.1-4.7-6.5M406.8,322.9l1,2,2.8-.8-1.1-1.8M398.2,330.7l.8,2.1,2.8-.6-.7-2.1"/>
      <path class="st3" d="M400.1,328.3l.8,2.1,2.8-.6-.8-2.1M421.6,334.4s1.2,1.5.3,2.4c0,0-.7.9-2.3-1.3-.6-1.1-1.1-2.2-1.4-3.4,0,0,1.4,3.5,2.5,3.7,0,0,1,.6.9-1.4"/>
      <path class="st3" d="M420.6,335.6c-.7,0-1.8-2.3-2.4-3.6v-.5.6c-.2.7,1.5,3.8,1.4,3.6.8,1,1.4,1.5,2,1.5.2,0,.5,0,.7-.2,1-.9-.2-2.6-.3-2.6l-.4-.5c0,.4,0,1.5-.3,1.7h-.7ZM421.4,334.5s1.1,1.4.3,2.1h-.3c-.4,0-.9-.2-1.7-1.4h0c-.6-1-1.1-2.1-1.4-3.3h-.3c0,.4,1.5,3.6,2.6,3.8h0c.2.1.5.1.8,0,.4,0,.5-.7.4-1.5l-.3.2ZM422,321.1s.9,1.6,0,2.4c0,0-.9.7-2.1-1.7,0,0-1.1-3-.8-3.6s.9,3.7,1.9,4c0,0,1,.7,1.2-1.2"/>
      <path class="st3" d="M420.9,322c-.6-.2-1.4-2.5-1.8-3.9v-.5.5c0,1.3.3,2.6.8,3.8h0s.8,1.6,1.8,1.9c.2,0,.4,0,.7,0,1.1-.8,0-2.6,0-2.7l-.3-.5s0,1.4-.5,1.7h-.5l-.2-.3ZM421.8,321.1s.8,1.5,0,2.1h-.4c-.3,0-.8-.4-1.5-1.7h0c-.4-1.1-.7-2.3-.8-3.5h-.3c0,.4,1,3.8,2,4.2h0c.2.1.5.1.7,0,.4-.4.7-.9.7-1.4l-.4.2ZM410.2,308.4l.4,1.7s2.3-.4,4.2,2.8c-.4-2.4-2.3-4.2-4.7-4.7M405.4,346.1l.4,1.7c1.8,0,3.4,1.1,4.2,2.8-.4-2.4-2.3-4.3-4.7-4.7M419.7,300.9l.7,1-4,14-.7-1"/>
      <path class="st3" d="M416.7,316.9l4.2-14.5h0l-1-1.4s-4.2,14.9-4.1,14.6,1,1.7.9,1.4h0ZM419.9,301.4l.7,1h0l-4.1,14h.4l-.7-1h0l4-14h-.3ZM405,315.8s-.5-2.6-1.4-1c-.6.9-.6,2.1,0,3,.3.5,1.3,0,1.3,0l-.2,1,.4.6,1.5-4-.3-1-.8,1.7c-.3.5-.9.6-1.4.4v-.9c0-.9.9,0,.9,0"/>
      <path class="st3" d="M346.2,537.2l3.4-.3s28-17.3,28.9-16.6c-3.6-.2-7.2.9-10.1,3-6.9,3.8-16.5,9.8-16.5,9.8l.4-2.1s-6.1,6.2-6.1,6.2ZM344.6,385s-.8.5-1,.5l-.4-.3s0-.8.9-.6c0,0,.6.4.6.4ZM345.1,385l-1.5-1.3c-.7-.7-1,0-1,0-.2.8,0,1.6.3,2.4.8,1.2,2.1,0,2.1,0l.2.3c.2,2.5.2,5.1,0,7.7h0c1-2.4,1.2-5.1.5-7.6v-.3h.8l-.6-1.1h-.9,0Z"/>
      <path class="st3" d="M346,384.7l.6,1.1h-.9v.4c.7,2.5.6,5.2-.4,7.6h.2c.2-2.6.2-5.1,0-7.7h0v-.3h-.2c-.4.3-.8.5-1.3.5-1,0-1.3-2-1-2.8l.3-.3h.5c.5.4,1,.8,1.5,1.3h0l.9-.3h0l-.2.6ZM345.3,384.7l-1.6-1.3h0l-.7-.3c-1,0-.7,3.4.7,3.5.5,0,1-.2,1.4-.5h0c.2,2.7.2,5.5,0,8.2l.2-.3h0c1-2.4,1.1-5.1.4-7.6h0c.2,0,.5,0,.7,0h0s-.8-1.5-.7-1.3h0l-.9.3h0l.3-.8Z"/>
      <path class="st3" d="M344.1,384.5c-.7,0-1,0-1,.7s.4.4.5.4.8,0,1.2-.5h0l-.6-.6h0ZM344.5,384.9c-.3,0-.7.5-.9.4l-.4-.3v-.5c.2,0,.4,0,.6,0h0l.5.4h.2ZM345.5,393.2s-.7.9-1.1.9-.5,0-.6-.3-.3-1,.8-1c0,0,.8.4.8.4ZM346,392.8l-2.3-.8c-1.1-.5-1.1.6-1.1.6.1,1,.6,1.9,1.3,2.6,1.4,1.1,2.5-.7,2.5-.7l.4.2c1.1,2.9,2.1,5.8,2.8,8.8v-.3c.2-3.2-.7-6.4-2.5-9v-.4l.9-.5-1.1-1-.9.6h0Z"/>
      <path class="st3" d="M346.9,392.2l1.1,1h0l-1,.7v.4c1.9,2.6,2.8,5.7,2.5,8.9h0v.3h0c-.7-3-1.7-6-2.8-8.9h0l-.3-.3h0c-.3.5-.8.8-1.3,1-1.2,0-2.2-1.7-2.3-2.8l.3-.5h.7c.8.2,1.5.5,2.3.8h0l1-.7h-.2ZM346,392.7l-2.3-.8h0c-.7-.4-1.2,0-1.2.7s1.1,3.2,2.5,3c.6-.2,1.2-.6,1.5-1.2h0v.2h0c0,.5,0-1.3,2.9,9.3v-.7c.2-3.2-.7-6.4-2.6-9h0c.2-.2.5-.4.8-.5h0l-1.3-1.2-1,.7h0l.6-.6Z"/>
      <path class="st3" d="M344.6,392.8c-.8,0-1.1.6-.9,1.2s.6.4.7.4,1-.8,1.1-1.1-.6-.4-.9-.5ZM345.3,393.1c-.2.4-.6.7-.9.9h-.5v-.6c.2-.2.4-.3.7-.3h0c.3,0,.7,0,.7.3h0v-.3ZM337.9,415.6s-.6,1-.9,1h-.6s-.4-.9.7-1.1h.8ZM338.4,415.2c-.8-.3-1.6-.5-2.4-.6-1.1-.4-1,.7-1,.7.2,1,.8,1.8,1.5,2.4,1.4.9,2.4-1.1,2.4-1.1h.3c1.4,2.7,2.7,5.6,3.8,8.4v-.3c-.1-3.2-1.3-6.3-3.5-8.7v-.3l.8-.6-1.1-.7-.9.8h0Z"/>
      <path class="st3" d="M339.4,414.5l1.2.9h0l-.9.7h0v.5c2.1,2.4,3.3,5.4,3.5,8.6h0v.3h0c-1.1-2.9-2.3-5.7-3.7-8.5h0l-.3-.3h-.2c-.3.5-.7,1-1.3,1.2-.3.1-.7.1-1,0-.8-.6-1.3-1.4-1.4-2.4v-.6h.7c2.5.5,2.1.6,2.3.7h0l1.3-1.1h0ZM338.6,415c-.8-.3-1.6-.5-2.4-.6h0c-.3-.1-.6-.1-.8,0-.9.7.8,3.9,2.5,3.5.6-.3,1.1-.7,1.3-1.3h0v.2h0c1.5,2.8,2.8,5.8,3.8,8.8v-.7h0c-.2-3.2-1.4-6.3-3.5-8.8h0s.4-.3.8-.6h0l-1.2-1.1-.9.8.5-.2Z"/>
      <path class="st3" d="M337,415.3c-.8,0-1,.6-.7,1.2.1.2.4.3.7.2.4,0,.9-.9,1-1.1s-.6-.3-.9-.3ZM337.8,415.6c0,.3-.6,1-.8,1h-.5v-.7s.3,0,.7-.3h0c.3,0,.5.1.8.2h0v-.2ZM349.9,525.5c.2.4.3.9.4,1.3l-.4.3c-.4,0-.7-.4-.6-.8,0-.1,0-.2.1-.3l.6-.4ZM349.9,524.8c-.6.3-1.1.6-1.6,1-.8.4,0,1.1,0,1.1.7.5,1.6.8,2.5.7,1.4-.3.4-2.2.4-2.2h.3c2.8,1,5.5,2.2,8.1,3.6v-.3c-2.2-2.1-5.1-3.4-8.1-3.9h-.3v-1h-1.3v1h-.1Z"/>
      <path class="st3" d="M349.7,523.9h1.2v1.1h0l.3.3c3,.4,5.8,1.8,8.1,3.9h0v.3h0c-2.6-1.4-5.4-2.6-8.1-3.6h-.1v.2s.6,1,.2,1.7-2.3.3-3-.3l-.4-.8.3-.3h0c.5-.4,1-.7,1.5-1h0v-1.2h0ZM349.7,524.7c-.6.3-1.2.7-1.7,1.1h0l-.4.5c0,1.1,3.2,2.3,3.7,1.1.2-.7.1-1.4-.3-2h0c.2,0,.4-.2,8.1,3.6h0l-.2-.3c-2.2-2.1-5.1-3.5-8.1-3.9,0,0-.3,0,0-1h-1.4v1.2-.3h.3Z"/>
      <path class="st3" d="M349.2,525.8c-.3.4-.2.9.2,1.2,0,0,.2.1.3.1.3,0,.5,0,.6-.3s0-1.2-.4-1.4-.5,0-.7.4ZM349.8,525.5c.2.4.3.8.4,1.2h-.4c-.2,0-.4-.2-.5-.4v-.7h0l.5-.3v.2ZM395.9,343.5s-1.3.3-1.4,0,0-2.4,2.8-2.1c0,0,.7.7-1.4,2.2M398.8,339c-4.1-1.5-5.6.3-5.6.5-.7,1.5-.5,3.3.5,4.7.7,1.5,2.4,2.1,3.9,1.5.2,0,.3-.2.4-.3,0,0,1.7-2.2,2.7-2.5,0,0,1.4-.7,1.9,0v3.6c0,.2-1,5.9-1.1,6.4s-2.7,9.3-2.8,9.7-2.9,8.6-3,9.1,6.2-10.1,6.8-11.5c.8-2.9,3.3-13.2,2-16-1-2.5-3.1-4.5-5.6-5.5M344.1,436.7s-.7,1.1-1.1.7-1.7-1.6.8-3.5c0,0,.9,0,0,2.7M343.1,431.4c-4.1,1.4-4,3.8-3.9,4,.3,1.7,1.7,3.1,3.5,3.4,1.5.7,3.3,0,3.9-1.5,0-.1.1-.3.2-.5,0,0-.2-2.8.4-3.6,0,0,.6-1.4,1.5-1.1l.7.7,1.6,2.1s3.1,5.1,3.4,5.6l4.2,9.3c.2.4,3.4,8.4,3.6,8.9s-2-11.7-2.3-13.1c-1.4-2.7-6.2-12.1-8.9-13.4-2.5-1.2-5.3-1.4-7.9-.6M351.5,514.1l1.8-4.4s0,1.5.5,1.2,3.9-4.2,5.4-4.7,3-1.5,7.7,1.2c3.2,1.8,6.4,3.9,9.3,6.1,0,0,8.2,10.3,8.4,10.8s-15.2-12.8-16.4-13.6c-2.1-1.6-4.5-3-7-4-1,0-4.9,4.2-6.2,6.2l-3.4,1h-.1ZM337,451.1l2,1,1.7-2.3-2-1.1M343.4,526.1l2.2.4.9-2.7-2.4-.4M363.6,455l1.6,1.4,2.2-1.8-1.7-1.5M359,430.2l2,1.1,1.8-2.2-1.9-1.2M352.9,401.6l1.5,1.6,2.4-1.6-1.6-1.7M368,379.8l1.5,1.6,2.4-1.6-1.6-1.7"/>
      <path class="st3" d="M392.7,366.7l1,2,2.8-.8-1.1-2.1M336.8,448l2,1,1.7-2.3-2-1.1M356.2,403.3l1.4,1.6,2.4-1.6-1.5-1.7"/>
      <path class="st3" d="M357,400.5l1.4,1.6,2.4-1.6-1.5-1.7M396,328.1l.8,2,2.8-.7-.8-2.1M339.4,489.6l2.8.5v-2.3l-2.8-.4"/>
      <path class="st3" d="M342.1,488.1l2.8.5v-2.3l-2.8-.4M386.5,349.5s.7,1.7-.3,2.3c0,0-1,.7-2-1.9-.3-1.2-.5-2.4-.4-3.7,0,0,.5,3.8,1.4,4.2,0,0,.9.7,1.3-1"/>
      <path class="st3" d="M385.4,350.3c-.7-.3-1.1-2.6-1.4-4.1v-.5l-.3.5c-.4.7.5,4,.4,3.8.4,1.1,1.2,2.5,2.2,1.9s.5-2.6.4-2.6v-.6c0,.3,0,1.4-.7,1.6h-.7ZM386.4,349.5s.6,1.6-.3,2.1h-.4c-.3,0-.8-.5-1.3-1.8h0c-.3-1.2-.5-2.4-.4-3.5h-.3c0,.4.6,3.9,1.5,4.4h0c.2.1.5.1.7,0,.4,0,.7-.6.8-1.3h-.4ZM377.9,365.5s.7,1.4-.3,2c0,0-.9.6-1.8-1.6,0,0-.7-2.6-.4-3s.5,3.2,1.3,3.5.8.6,1.3-.9"/>
      <path class="st3" d="M376.7,366.3c-.5-.2-1-2.2-1.2-3.4v-.4l-.3.4c-.3.5.3,2.8.4,3.2h0c.4,1,.9,1.5,1.4,1.7.2,0,.4,0,.6,0,1.2-.6.4-2.3.2-2.6s-.2,1.3-.7,1.4h-.4v-.2ZM377.7,365.6s.6,1.4-.2,1.8h-.3c-.3,0-.8-.4-1.2-1.5h0c-.3-1-.4-2-.4-3h-.3c0,.3.5,3.3,1.4,3.6h0c.2.1.5.1.7,0,.4-.2.8-.6.8-1.1h-.4v.2ZM388.4,378.9s.7,1.4-.4,2c0,0-.9.6-1.8-1.6-.3-1-.5-2-.4-3.1,0,0,.5,3.2,1.3,3.5,0,0,.9.7,1.3-.9"/>
      <path class="st3" d="M387.3,379.7c-.6,0-1-2.2-1.3-3.4v-.4l-.3.4c-.3.6.4,3.4.3,3.2.4.9,1.2,2.1,2,1.6s.4-2.3,0-2.6,0,1.2-.6,1.4l-.4-.2h.2ZM388.3,379s.6,1.4,0,1.8h-.3c-.3,0-.7-.4-1.2-1.5h0c-.3-1-.4-2-.4-3h-.3c0,.3.5,3.3,1.4,3.7h0c.2.1.5.1.7,0,.3,0,.6-.5.7-1.1h-.6ZM364.3,440.9s1.5.6,1.2,1.6c0,0-.3,1-2.3,0,0,0-2.3-1.4-2.4-2s2.5,2,3.4,1.7c0,0,.9,0,0-1.4"/>
      <path class="st3" d="M364,442.2c-.6,0-2.3-.9-3.3-1.7l-.3-.3v.5c0,.6,2.1,1.8,2.5,2.1h0c.7.3,1.5.3,2.2,0,.2-.1.4-.3.4-.5.4-1.2-1.4-1.9-1.7-2.1s.7,1,.5,1.4l-.4.3v.2ZM364,441s1.4.5,1,1.4l-.3.3c-.3,0-.8,0-2-.3h0c-.9-.6-2.3-1.5-2.3-1.9h-.3c.3,0,2.6,2,3.5,1.7h0c.3,0,.5-.2.7-.4.1-.4,0-.9-.2-1.3v.5ZM369.2,504.1s2,.5,1.7,2c0,0,0,1.4-2.8.6,0,0-3.1-1.4-3.4-2.1s3.5,2.1,4.4,1.6c0,0,1.3-.4,0-2.1"/>
      <path class="st3" d="M369.5,505.8c-.6.4-2.9-.7-4.2-1.6l-.5-.3c.3.6,0,1,3.7,2.9h0c4.1,1.3,3.6-2.6,1.1-3h-.5c0,.4,1,1.3.9,1.9,0,.2-.2.3-.4.3h0ZM369.5,504.2c1.5.4,1.7,1.4,1.6,1.8v.3c-.3.3-.9.5-2.4,0h0c-1.2-.4-2.3-1.1-3.2-2l-.3.3c.3,0,3.5,2.2,4.7,1.6h0c.3,0,.5-.3.7-.6,0-.6-.1-1.3-.6-1.7v.3h-.5ZM378.8,394.6s.7,1.4-.4,2c0,0-.9.6-1.8-1.6-.3-1-.4-2-.4-3,0,0,.5,3.2,1.3,3.5,0,0,.8.6,1.3-.9"/>
      <path class="st3" d="M377.6,395.3c-.6,0-1.1-2.2-1.2-3.4v-.4l-.3.4c-.3.5.3,2.7.3,3.2h0c.4,1,.9,1.5,1.5,1.7.2,0,.4,0,.6,0,1.2-.7.3-2.4.2-2.7s-.2,1.2-.7,1.4h-.5v-.2ZM378.6,394.6s.5,1.4-.3,1.8h-.4c-.3,0-.7-.4-1.2-1.5h0c-.3-1-.4-2-.4-3h-.3c0,.3.5,3.2,1.4,3.6h0c.2.1.5.1.7,0,.4-.2.7-.6.7-1.1h-.3ZM358.9,408.6s1.3.9.7,1.9c0,0-.5.9-2.3-.4,0,0-2-1.9-2-2.4s2,2.5,3,2.3c0,0,1,0,.6-1.4"/>
      <path class="st3" d="M358.3,409.8c-.6,0-2.1-1.4-2.8-2.3l-.3-.4v.5c0,.6,1.7,2.2,2,2.6h0c.6.5,1.3.8,2.1.7.2,0,.4-.2.5-.4.7-1.2-.9-2.1-1.2-2.3v.5c.1.3.1.7,0,1h-.4.1ZM358.8,408.8s1.3.8.7,1.6l-.3.2c-.3,0-.8,0-1.8-.7h0c-.8-.7-1.4-1.4-1.9-2.3h-.2c0,.3,2.1,2.6,3.1,2.4h0c.2,0,.5,0,.7-.3.2-.4.2-.9,0-1.3h-.3v.3ZM364.4,394.5s.9,1.4,0,2c0,0-.8.7-2.1-1.3-.4-.9-.7-1.9-.9-2.9,0,0,1,3,1.9,3.2,0,0,.9.6,1.1-1"/>
      <path class="st3" d="M363.4,395.4c-.7,0-1.4-2-1.7-3.2v-.4l-.2.4c0,1.1.4,2.2.9,3.1h0c1.7,2.8,3.5,1.1,2.3-.9l-.3-.4v.5c0,.4-.1.7-.3,1h-.7ZM364.3,394.6s.7,1.2,0,1.8h-.3c-.3,0-.8-.3-1.5-1.4h0c-.4-.9-.7-1.8-.9-2.8h-.3c0,.3,1,3.1,1.9,3.4h0c.2.1.5.1.7,0,.3,0,.5-.6.6-1.2v.2ZM377.2,353.8l.8,1.5c1.8-.4,3.6.4,4.7,1.8-1-2.1-3.1-3.4-5.5-3.4M363.2,372l.7,1.6c1.8-.3,3.6.4,4.7,2-.9-2.1-3-3.5-5.3-3.5M358.1,378.5l1,2.3c2.6-.5,5.2.6,6.6,2.8-1.2-3.1-4.2-5.2-7.6-5.1M329.8,474.1l1.7.5c.9-1.6,2.6-2.4,4.4-2.3-2.2-.7-4.6,0-6.1,1.8M336.8,508.1l1.7.5c.9-1.6,2.6-2.4,4.4-2.3-2.2-.7-4.6,0-6.1,1.8M349.3,540.5l2.2.6c1.2-2.1,3.5-3.3,5.9-3-2.9-.9-6.1,0-8.1,2.4M341.6,457.7l1.7,1.3c1.7-1.4,4.1-1.6,6.1-.6-2.2-1.8-5.3-2.1-7.7-.7M396.1,318.4l.7,1.1-4,14-.6-1.1"/>
      <path class="st3" d="M392.7,334c0-.2,4.7-15.6,4.2-14.7l-1-1.4-4.1,14.6s.9,1.5.9,1.5ZM395.9,318.5l.7,1h0l-4,14h.3l-.6-1.1h0l3.9-14h-.3ZM388.6,326.2l1,1.2-3.1,17.7-.8-1.2"/>
      <path class="st3" d="M386.5,345.6s3.4-19.5,3.2-18.3l-1.3-1.5-3.1,18.3,1.2,1.5ZM388.4,326.3l1,1.3h0l-3,17.7h.3l-.8-1.2h0l3-17.6h-.4ZM378,350.1l.9,1,2.5-15.5-.9-1.1"/>
      <path class="st3" d="M377.8,350.2l.9,1v.3l2.7-16-1.3-1.4-2.6,16h.2ZM380.3,334.7l.9,1.1h0l-2.6,15.5h.3l-.9-1h0l2.5-15.5h-.3ZM371.5,361.9l1,1,1.1-18.1-1.1-1.1"/>
      <path class="st3" d="M372.6,344.5l.7.7-1.2,17.3-.6-.6,1.1-17.4ZM371.3,362.2l1.3,1.4,1.1-18.7h0l-1.6-1.5-.9,18.7h.1ZM356.2,383.2l.8.8,1.6-14.2-.9-.9"/>
      <path class="st3" d="M358.1,369.2l.6.6-1.6,13.7-.6-.5,1.5-14v.2ZM356.1,383.2h0l.8.9.3.3,1.7-14.7c-1.6-1.7-1.1-1-1.2-1.2l-1.6,14.7ZM329.6,443.9h1.3l8.2,11.7h-1.2"/>
      <path class="st3" d="M339.4,455.7l-8.5-12h-1.7l8.6,12h1.7,0ZM329.5,443.8h1.3l8.3,11.7h-1.2l-8.3-11.7h0ZM330.1,451.1h1.4l8.2,11.7h-1.2"/>
      <path class="st3" d="M340,463.1l-8.5-12.1h-1.8l8.6,12.1h1.6,0ZM330.1,451.3h1.3l8.1,11.7v-.3h-1.2l-8.4-11.7v.3h.2ZM333.6,498.5l1.2-.5,12.5,7-1.1.4"/>
      <path class="st3" d="M347.6,505.2l-12.9-7.2-1.3.5h-.3l12.9,7.1,1.5-.6h0ZM333.6,498.8l1.1-.3h0l12.5,7v-.4l-1.1.4h0l-12.5-7v.3ZM338.6,517.2l8.2,2.9.7-.3-8-3.1"/>
      <path class="st3" d="M339.4,516.8l7.9,2.9-.4.2-8.2-2.8.5-.3h.2ZM339.4,516.5l-.7.4h-.2l8.5,3,.8-.5-8.4-3.1h0ZM362.7,459.5h.7l4.9,7.6h-.7"/>
      <path class="st3" d="M368.6,467.4l-5-7.9h-.8s5.5,8.4,5.1,7.8h0c.2,0,.5,0,.7,0ZM362.7,459.7h.7l4.9,7.7h-.7l-5-7.8h0ZM330.7,425.6h.8l6.3,10h-.8"/>
      <path class="st3" d="M338.1,435.9l-6.4-10.4h-1.1l6.5,10.3h1.1ZM330.8,425.8h.8l6.3,10v-.3h-.7l-6.3-10v.3h0ZM333.3,426.1h.8l6.1,9.1h-.7"/>
      <path class="st3" d="M339.4,435.3h1l-6.3-9.3h-1.1l6.4,9.3ZM333.2,426.2h.7l6,9.1v-.3h-.6l-6.1-9h0v.2ZM379.9,385.1c.3-.2.7-.3,1.1-.3.8,0,.7.8.8,1s-1.2-.2-1.1,0-.2,0,.3,1c.7,1,1.5,1.9,2.3,2.8v.6c-1-.5-2.1-.9-3.2-1,0,0-.4,0-.3.3v.4h-1.1c-.2-.4-.4-.7-.5-1.2,0,0,0-.7,1.2-.6.9,0,1.8.2,2.6.6,0,0,.3,0,0,0-.7-.8-1.4-1.6-2-2.5,0,0-.5-1.2,0-1.3"/>
      <path class="st3" d="M379.7,386.5c.6.9,1.3,1.7,2,2.5h0c-.8-.5-1.8-.7-2.8-.7-.4,0-.8,0-1,.3l-.3.5c0,.5.2.9.5,1.4h1.4v-.3h0c1.1.2,2.1.5,3.1,1h0s0-1.1,0-.9h0c-.9-1-2.2-2.8-2.2-2.8l-.3-.7h1.2v-.3c0-1.1-.8-1-1-1-.4,0-.9.1-1.3.3h-.2c-.3.4,0,1.1,0,1.3l.9-.5ZM379.7,385.4h0c.3-.2.7-.3,1.1-.3.5,0,.5.3.6.6v.2-.2h-1.2v.3h0s0,.4.3,1.1c.7,1,1.5,1.9,2.3,2.8h0v.6h0c-1-.5-2.1-.9-3.3-1.1h-.4v.7h-1.1s-.5-.7-.4-1.1v-.3c.5-.4,2.6,0,3.3.5h.4v-.4h0c-.7-.8-1.4-1.6-1.9-2.5h0c0-.4-.2-.8,0-.9h.3ZM336.2,469.8c0-.4.2-.8.4-1.2.5-.7,1.2,0,1.3,0s-.9.9-.5,1.1,0,.3,1,.3c0,0,2.4,0,3.9-.3l.6.3c-1.1.6-2,1.3-2.9,2.1,0,0-.3.3,0,.5l.2.3-.7,1c-.5,0-.9-.1-1.4-.3,0,0-.6-.4,0-1.4.6-.8,1.3-1.4,2.1-1.9,0,0,.4,0,0,0-1.1,0-2.3,0-3.4,0,0,0-1.2,0-1-.6"/>
      <path class="st3" d="M337.2,470.5c1.2,0,2.3,0,3.5,0h0c-.9.4-1.7,1.1-2.2,1.9-.8,1-.6,2,1.4,2l.7-1.2h0v-.3h0c.8-.8,1.8-1.6,2.8-2.1h0l-.8-.6h0c-1.3.2-2.6.3-3.9.3h-.8l.6-.8.2-.2h-.4c-.5-.3-1.1-.2-1.4.3,0,0,0,0,0,0-.3.4-.4.8-.4,1.3h0v-.6l1.3.4-.5-.4ZM336.4,469.6s0-.4.4-1,.7-.3,1,0h.2v-.3s-.7.7-.7,1.1v.3h0s0,.4,1.2.5c1.3,0,2.6-.1,3.9-.3h0l.6.4v-.4c-1.1.6-2.1,1.4-3,2.2h0l-.2.4.4.4h0l.2.4h0l-.7,1h0c-.4,0-.8,0-1.2,0v-.3c0-.7,1.6-2.4,2.5-2.7l.3-.4h-.3c-1.1.1-2.3.1-3.4,0h0c-.5,0-.9-.3-.9-.4h0l-.2-1ZM359.7,533v-.9c0-.7.9-.4,1-.4s-.5.8,0,1,0,0,.8,0c1-.2,1.9-.5,2.9-.9h.5c-.7.6-1.3,1.3-1.8,2.1,0,0-.3,0,0,.3v.3l-.3.9c-.4,0-.8,0-1.1,0,0,0-.5,0,0-1,.3-.7.7-1.3,1.3-1.8,0,0,.3,0,0,0s-2,.7-2.6.8-1.1,0-1-.5"/>
      <path class="st3" d="M360.5,533.7c.9-.2,1.8-.5,2.7-.8h0c-.6.5-1.7,2.1-1.5,2.8l.3.4c.4.1.8.1,1.2,0h0s.4-1.3.4-1.1h0v-.3h-.7c.5-.8,1.1-1.5,1.8-2.1h-.5c-1.1.4-2.8.8-2.9.9-.2,0-.5,0-.7,0h0l.3-.7h-.3c-.4,0-.9,0-1.1.4,0,.3,0,.7,0,1h0c.3.1.7.1,1.1,0v-.6ZM359.7,533.1h0c0-.3,0-.6,0-.9,0-.4.4-.3.7-.3h0s-.4.7-.3.9h0c0,.7,3.4-.5,3.9-.7h.5c-.7.6-1.4,1.3-1.9,2.1h0v.3h.3v.3h0l-.2.9h0c-.3.1-.7.1-1,0h0c0-.6.8-2.1,1.4-2.5v-.3h-.3c-.8.3-1.7.6-2.6.7h-.7l.3-.7ZM362,465.1s-3-1.7-2.3.7c0,.3.9,2.6,2.9,2.6s1.3-1.1,1.3-1.1l.8,1.1h.9l-2.6-4.7-1.3-.5,1,2.2c.2.7-.2,1.4-.8,1.8,0,0-.3,0-.8-.7s.9-1.1.9-1.1M355.8,394.8s-.8-1,.4-1.3c0,0-.5,1.5.4,2.1s5.9,2.4,6.8,2.9c-1.7-1.6-3.9-2.6-6.2-3,0,0-.7-.3.3-2.5-.4-1-1-1-.9-1-2,.4-2,1-2,1.1-.2,1.1,1.2,1.6,1.2,1.6M365.6,422.3l-.5-.5c-.8-.5-1,0-1,0,0,.8,1.5,2.3,1.7,2.4.4.5,1.1.5,1.5.1,0,0,0,0,.1-.1.2-.2.3-.5.4-.7l2.2,1.4s1.2.8,2-.7c.5-1.7,0-3.4-1.2-4.7.3,1.5.3,3.1,0,4.7,0,0-.2.7-1.1,0-1.1-1.1-2.2-2.4-3.2-3.6h-1l1,1.4s.2,1.6-.6,1.6l-.7-.7c-.3-.3.4-.7.4-.7M365.1,497.8l-.5-.4c-1-.3-1.1.3-1.1.4s1.9,2,2.1,2.1,1.5,0,1.6-.3.3-.7.3-.7l2.4,1c.8.3,1.6-.1,1.9-.9,0,0,0-.1,0-.2.3-1.8-.5-3.6-2-4.7.5,1.5.7,3.1.7,4.7,0,0,0,.7-1,.3-1.3-.9-2.6-1.9-3.7-3h-1l1.2,1.1s.5,1.6-.3,1.7c-.3-.1-.5-.3-.7-.6-.6,0,0-.7,0-.7M341,402.5l-.5-.5c-.5-.5-1.1,0-1.1,0,0,.8,1.5,2.3,1.7,2.4.4.5,1.1.5,1.6,0,0,0,0,0,0,0l.4-.7,2.2,1.4c.7.4,1.6.2,2-.6,0,0,0,0,0-.1.5-1.7,0-3.5-1.2-4.7.3,1.5.3,3.1,0,4.7-.6,1.6-3.6-3-4.2-3.5h-1l1,1.3s.2,1.7-.6,1.6l-.7-.7c-.6-.4,0-.8,0-.8M350.9,430.4l2.4,1.5c1-.8,2.3-1.3,3.7-1.3,0,0,5.3,8.2-4.3,9.3-8.4,1-17.3-2.9-24,.4,1.7,1.3,2,1.6,2,1.6,4-2.8,11.6-.4,23.8-.4s6-3.5,6-3.5c0,0,1.8-6.7-3.5-8.6-2-.9-4.4-.5-6.1.9"/>
      <path class="st3" d="M388.7,365.2c0-1.4.4-2.8,1.3-3.9-.7-.6-1.3-1.2-1.8-2,.9-2,2.6-2.7,6.4-5.4-2.7,11.1-5.8,11.3-5.8,11.3M386.6,365.9c-.9.3-1.7.6-2.6.9l2.7-2.9v2h0ZM377.3,378.8c-.7,0-2.2-1.2-2.2-1.2,0,0,3,4.4.3,5.6-10.5,4.4-18.7,3.1-26.6,6.2-1-5.4,10.9-25,10.9-25,0,0,.7,1.3,1.1,1.4,6.4,2.6,12.6,5.6,18.7,9.1.8.6,2.1,4.1-2.2,3.9M364.9,356.5s1.4-2.1,1.4-.4c-.2,3.4,0,6.8.5,10.1-.6-.4-6.8-2.4-6.8-2.4l4.7-7.3h.2ZM354.5,425.9c-1.1-1.3.7-2,.7-2,0,.7-.3,1.4-.7,2M416.6,338.6c-.5-.7-.8-1.4-3-1.6s-1.6,2.2-4.7,3.3c-2.6.3-2.4-1.9-2.4-1.9v-3c0-1.8,3.4-.8,3.4-.8,0,0,4.2.3,5.3-1.9.5-1,1-2,1.4-3.1,0,0,.5-2.9-5.7-4.4.4,1,.9,1.9,1.4,2.8,0,0,1.3-.2,1.8.3s-1.1,2.9-1.1,2.9c-1.5,1.3-3.6,1.7-5.5,1-2.8-1.3-3.7,3.6-2.9,6.5s4,4.9,6,3.8,4.7-3.9,4.7-3c-.2,5.2-2.2,10.1-5.7,14-3.4,3.3-8.8,3.3-12.2,0,.8-2,1.9-3.8,3.4-5.4l-1.3-2.2c-3.4,3.7-7.4,6.9-11.9,9.3-4,2.9-.7,5.3-.7,5.3-3.2,2.8-5.9,6.2-7.8,10,.5.7,1.1,1.4,1.8,2,1.5-1.5,3.2-2.6,5.1-3.4,0,.3,0,.2-1,2.9-2,3.4-6.1,1.1-6.1,1.1l-11.5-6.3c.3-3.7.1-7.4-.4-11.1-1.5-4.7-3.4-1.7-3.4-1.7,0,0-18.1,25.7-16.1,35.7,1.3,1.8.7,1.7,2.3,2.1,6-1.9,12.4-2.5,18.7-1.9l-.7,3.4,1.7,1.5.9-.7c-.7,4.5-.1,9,1.7,13.2,1.1,4.2-4.3,1.9-4.7,1.3-.3-1-.8-2-1.4-2.9,1.6-.2,2.7-1.6,2.5-3.2,0-.3-.1-.7-.3-1-1.4-1.4-3.5-1.9-5.4-1.3.3.6.7,1.2,1.1,1.7.7-.1,1.4-.1,2.1,0,0,.8-.5,1.6-1.2,2.1l-2.4-.8c1.2,1.4,2.1,3,2.7,4.7.5,1.6-.4,3.2-2,3.7-.6-.4-1.3-.8-2-1.1,4.7,6,.5,7.3.5,7.3-1.9.7-4,.5-5.6-.7-.8-4.7-2.8-6.3-3.4-10.4-.6-.5-2.6,0-2.6,0,0,0,1.6,4.9,3,8.1,1.3,5-4.1,6.6-5.5,6.7s-1-2-1-2c.9-3.2-.4-6.6-3.1-8.5-3.9-2.2-7.3,0-6.2,0l5.8,1.4c1.1.6,1.7,1.8,1.4,3,0,1.8-1.8,5.5,2.3,7.4s7.6-2.5,7.6-2.5v1s-6.3,2.4-1,6c4.7,2.6,3.9-4.7,3.9-4.7,0,0,3.9-3.6,11,20.5,0-1.8-.3-7.4-.3-7.8-5.3-15.5-11.1-14.6-11.1-14.6,0,0-.3-1.4-.4-2.3,8.1,3.4,9.3-1.8,9.3-1.8.2-1.3-.2-2.6-1-3.5,1.7-.4,2.9-1.8,2.9-3.5l3.8,1.4s4,1,2.1-5.7c-3-10.7,1.7-15,1.7-15l-1.7-1.7-2.7,1.5s.5-1.2-1.3-2.4c2.3-.4,4.6-1,6.7-2,1.8-.8,2.6-2.9,1.9-4.7-.1-.3-.2-.5-.4-.7.7.6,6.9,0,4.1-4.7,2.4.5,4.7-.9,5.4-3.2.7-1.5,1.1-3.1,1.3-4.7,8.4-2.7,6.1-9.3,8.5-14,2.7,2.9,6.6,4.2,10.5,3.6,2.6-1.2,4.8-3.2,6.2-5.7,0,0,5.1-10.7,2.8-13.4M347.5,448.8c-1.9-1.2.5-2.5.5-2.5,0,0,.4,2-.5,2.5M354.6,454.7c5.4-3.7.7-10.1.7-10.1-3.8-2.1-8.5-1.1-11.1,2.3-1.4,2.8,3.1,3.6,3.1,3.6,0,0,3.4.9,3.3-3.3.6-3.1,2.6-2.2,2.9-1.4,2.9,6.2-.3,7.8-1.3,7.9s-2.9.2-2.9.2c1.6.3,3,1.1,4.2,2.2,4,4.7-.6,5.9-1.6,6.2-7.9.9-15.7,2.2-23.3,4-.4,2.4,3,1.9,3,1.9,0,0-.4-.8,0-1.1s19.7-2.8,21.5-3.2,8.1-3.4,1.5-9.3M360.6,496c-.5-.4-1.9-2.1-1.9-2.1h3.2c0,.9-.4,1.8-1.3,2.3M357.7,473.4c6.7-5.8,0-8.8-1.9-8-1.6.6-3.2,1.4-4.7,2.3l2.7,1.2c.7-.9,1.7-1.5,2.8-1.6,2.8,2.1,0,4.2-.8,4.7-5.8,2.6-22.9,5.1-25.4,6.9,3,1.4,2.6,1.1,2.6,1.1,0,0,23.1-5.7,24.5-5.4,14.3,11.6,6.6,16.6,6.6,16.6-1.3-2-2.9-3.8-4.7-5.3,3.3,0,4.9-8.7-2.4-7.1-9.3,2.3-18,5-18,5l.8-1.9-7.6,3.5,2.3,1.7s20.2-6,22.4-6.7,4.4,3,1.2,4.2c-1,.1-2,0-2.8-.4,0,0,6.7,6.7,6.4,8.4-1.3.2-2.5.3-3.8.3l-5.6-4.7h-3.6c3.6,1.9,6.7,4.8,8.7,8.4,0,1.5-.9,2.9-2.1,3.7,0,0-2,1.3-2.8-1.7-1-3.7-4.8-5.9-8.6-4.9-.6.2-1.3.4-1.8.8,0,0-4.9,1.8-4.9,2.7s7.5-2.6,9.3-2.2c3.4.3,2.4,4.2,4.7,6.3,3,3,7.9-1.4,8.1-1.7-2,8-17.7,7.6-20.5,14,.6.9,1.8,1.3,2.8.8,5.3-7.7,11.4-3.7,18.7-11.6,1.2-1.5,1.6-3.4,1.1-5.3,0,0,4.3-1.7,2.8-4.7,2.3.3,10.5-10.5-6.6-19.3M362.1,519.2c-1.4.4-1.3-1.4-1.3-1.4,0,0,2.3.9,1.3,1.4M352.8,519.2s1.2,1,1.2,1.6c-1.6,0-1.2-1.6-1.2-1.6M378.2,520.4c-14.3-12.4-17.8-5.6-17.8-5.6-1.1-1-2.6-1.4-4-1.3-5.5,2.1-6,5.6-6,5.6,0,0,0,5.6,4.7,3.4,3.5-1.5,0-4.7-.6-5.6s.6-1.5,1.1-1.7,3.3,1.4,3.3,1.4c0,0-1.6,2.7.3,4.2,5.3,2,5.5-2.8,4.7-2.9-.8-1.1-.2-.5-2-2,.8-1.5,16.6,2.9,14.8,10.2-.4,1.3-1.8,2.5-8.2,3.5,8.6,1.2,13-5.3,9.8-9.3"/>
      <polygon class="st3" points="494.2 260.9 492 246.2 495.6 249.6 492 236.5 495.6 238.8 498.2 223.1 500.9 239.1 504.4 237.3 500.4 249.4 504.4 246.6 502.2 260.9 498.2 276.6 494.2 260.9"/>
    </g>
  </g>
</svg>