<?xml version="1.0" encoding="UTF-8"?><svg id="Layer_1" xmlns="http://www.w3.org/2000/svg" viewBox="0 0 1000 1000"><defs><style>.cls-1{fill:none;}.cls-2{fill:#3aaad1;}.cls-2,.cls-3,.cls-4,.cls-5{fill-rule:evenodd;}.cls-3{fill:#58abc8;}.cls-4{fill:#424c50;}.cls-5{fill:#b3b2b3;}</style></defs><path class="cls-2" d="m577.6,603.62l4.36,3.87v-177.16l-4.36-1.45v174.74Z"/><path class="cls-4" d="m519.52,528.11c0-8.23.48-16.46,0-24.2.01-6.68-4.99-12.3-11.62-13.07-5.32-.48-11.13,0-16.94,0v37.27h28.56Zm-91-45.5h8.71v45.5h44.05v-45.5c11.62.48,22.75-1.45,33.4,1.45,7.01,2.04,12.03,8.21,12.59,15.49.97,12.1,0,24.2,0,36.3h-194.59c-15.97,0-20.33-4.36-20.33-20.33v-59.05h8.71v61.47c0,8.23,1.94,10.16,10.16,10.16h40.18v-41.63h8.71v41.63h19.85v-41.63h9.2v41.63h19.36v-45.5Z"/><path class="cls-4" d="m240.71,528.11h45.98v-45.5h8.71v53.24h-103.1v-7.74h40.18c-.15-9.71-.79-19.4-1.94-29.04-.97-5.81-6.29-8.71-14.04-9.2h-15.97v-7.26c8.06-.48,16.14-.48,24.2,0,9.68,1.45,15.01,8.71,15.49,18.88.48,6.78,0,14.04,0,20.81.38,1.91.54,3.86.48,5.81"/><path class="cls-4" d="m242.16,550.37v47.44h-5.81v-40.66h-.48c-.48.97-.97,1.45-.97,2.42-4.36,12.1-8.71,23.72-13.07,35.82-.12,1.56-1.47,2.73-3.03,2.61-.29-.02-.57-.09-.84-.19h-2.42c-1.45.48-2.42-.48-2.9-1.94-4.36-12.1-9.2-24.69-13.55-36.79-.12-.73-.46-1.4-.97-1.94v40.66h-5.32v-47.44h9.2l15.01,41.63c.41-1.48.9-2.93,1.45-4.36,4.36-11.62,8.71-23.23,13.07-35.34.39-1.53,1.82-2.55,3.39-2.42,2.4.4,4.83.56,7.26.48m150.54,0h5.81c.97,0,1.45.97,1.94,1.94,7.74,11.62,15.01,23.23,22.75,34.85.49.92,1.15,1.74,1.94,2.42v-38.72h5.32v47.44h-5.81c-.48,0-1.45-.97-1.94-1.45-7.74-11.62-15.49-23.23-22.75-35.34-.59-1.01-1.23-1.98-1.94-2.9v39.69h-5.32v-47.92Zm100.68,4.84v37.76h13.07c8.71-.48,13.55-3.87,14.52-11.13.48-4.99.48-10.02,0-15.01-.27-5.41-4.33-9.87-9.68-10.65-5.81-.48-11.62-.48-17.91-.97Zm-5.81-4.36c8.23,0,15.97-.48,23.72,0,7.92.62,14.36,6.65,15.49,14.52,1.21,5.75,1.21,11.68,0,17.43-1.33,9-9.31,15.51-18.39,15.01-6.78.48-13.55,0-20.81,0v-46.95Zm-232.34-.48h5.81v29.04c0,10.16,3.39,13.55,13.55,13.55h11.62v-42.6h5.81v46.95c0,.27-.22.48-.48.48-7.26,0-14.52.48-21.3,0-7.56.46-14.06-5.3-14.52-12.86-.03-.55-.03-1.11,0-1.66-.97-10.65-.48-21.78-.48-32.92m108.43,6.29h-.48l-8.71,23.72h18.39l-9.2-23.72m-22.27,41.63l18.39-47.44h.48q6.29-.48,8.23,5.32c5.32,13.07,10.16,26.14,15.49,39.69.4.94.72,1.91.97,2.9h-5.32c-.7-.21-1.24-.76-1.45-1.45-.97-2.9-2.42-5.81-3.39-9.2-.48-1.45-.97-1.94-2.9-1.94h-17.91c-1.32-.17-2.56.66-2.9,1.94-1.18,2.66-2.15,5.41-2.9,8.23-.48,1.94-1.45,2.42-3.39,2.42-.48-.97-1.94-.48-3.39-.48m-6.29-47.44v4.84h-19.85c-3.74.23-6.58,3.44-6.35,7.18.01.19.03.38.06.57-.37,3.87,2.43,7.32,6.29,7.74h8.23c11.62.48,14.52,7.26,13.07,16.46-.26,5.69-4.95,10.17-10.65,10.16-7.26.48-15.01,0-22.27,0v-4.84h18.39c6.29,0,8.71-2.9,8.71-9.2.37-3.64-2.28-6.89-5.91-7.26-.45-.05-.9-.05-1.35,0h-8.23c-10.16-.48-13.55-6.78-12.59-15.49-.03-5.61,4.5-10.19,10.12-10.21.34,0,.68.01,1.01.05,7.26-.48,14.52,0,21.3,0m144.73,41.14h-31.46v-14.04h28.56v-6.29h-28.07v-14.52h28.56v-5.81h-34.37v47.44h37.27l-.48-6.78Z"/><path class="cls-1" d="m635.69,482.12h16.94v-23.23l-16.94,7.26v15.97Z"/><path class="cls-4" d="m287.18,465.66q-.48,0-.48.48v8.23q0,.48.48.48h7.26q.48,0,.48-.48v-8.23q0-.48-.48-.48h-7.26Z"/><path class="cls-3" d="m786.71,526.65h-42.11l-16.94,17.43h0v38.72h-75.51v-123.92l62.44-27.59,11.62-4.84-20.81-9.2-70.19,30.49.48,135.05,16.46,16.94h0v-.48l.48.48h75.03l17.43,13.55v-13.55h41.63v-16.94h-41.63v-38.72h41.63v55.67h0l17.43-16.94v-39.21l-17.43-16.94Z"/><path class="cls-5" d="m725.72,408.06h0l-21.3,9.2,98.26,42.6h0v23.23h17.43v-33.4h0l-94.39-41.63Z"/></svg>